<svg xmlns="http://www.w3.org/2000/svg" xmlns:xlink="http://www.w3.org/1999/xlink" viewBox="0 0 128 128"><defs><style>.cls-1{fill:#fff;}.cls-2,.cls-6{fill:none;}.cls-2{clip-rule:evenodd;}.cls-3{clip-path:url(#clip-path);}.cls-4{clip-path:url(#clip-path-2);}.cls-5,.cls-7{fill:#ffeb00;}.cls-6,.cls-7{stroke:#233041;stroke-linecap:round;stroke-linejoin:round;stroke-width:1.5px;}</style><clipPath id="clip-path"><path class="cls-1" d="M-81.75,1186.17h13.39v58.42a6.67,6.67,0,0,0,1.72,4.51,5.47,5.47,0,0,0,4.12,1.84h11.27c3.2,0,5.79-2.84,5.79-12.43V1075.4a4.78,4.78,0,0,0-2.35-3.88,4,4,0,0,0-4.24.21c-21.1,14.48-33.92,39.85-33.92,67.16v42.75a4.84,4.84,0,0,0,1.24,3.27,4,4,0,0,0,3,1.35Zm-76.78-42.25,2-67.49a5.52,5.52,0,0,1,5.27-5.51,5.53,5.53,0,0,1,5.28,5.51l1.39,44.09a4.71,4.71,0,0,0,3.78,4.72,4,4,0,0,0,3.23-1.11,4.88,4.88,0,0,0,1.46-3.34l1.37-44.08a5.83,5.83,0,0,1,4.22-5.7,5.76,5.76,0,0,1,2.11,0,5.83,5.83,0,0,1,4.22,5.7l1.37,44.08a4.85,4.85,0,0,0,1.47,3.34,4,4,0,0,0,3.22,1.11,4.71,4.71,0,0,0,3.78-4.72l1.38-44.09a5.51,5.51,0,0,1,5.27-5.51,5.51,5.51,0,0,1,5.27,5.51l2,67.42a18.49,18.49,0,0,1-7.92,16l-9.72,6.55v78.15a6.09,6.09,0,0,1-5.8,6.35h-11.26a6.09,6.09,0,0,1-5.8-6.35v-78.28l-9.52-6.33A18.47,18.47,0,0,1-158.53,1143.92Z"/></clipPath><clipPath id="clip-path-2"><path class="cls-2" d="M-97.95-88.22a3.18,3.18,0,0,0,3.18-3.18,3.19,3.19,0,0,0-3.18-3.19,3.19,3.19,0,0,0-3.18,3.19A3.18,3.18,0,0,0-97.95-88.22Zm-1-38.23h2.1a2.13,2.13,0,0,1,2.13,2.13v22.82a2.12,2.12,0,0,1-2.13,2.12H-99a2.12,2.12,0,0,1-2.13-2.12v-22.82A2.13,2.13,0,0,1-99-126.45Zm9.09-21,36.27,62a8.9,8.9,0,0,1-3.28,12.26A9,9,0,0,1-61.52-72l-71.86-.71a9.1,9.1,0,0,1-9-9.08,8.94,8.94,0,0,1,1.2-4.42l35.59-61.27a9.09,9.09,0,0,1,12.39-3.26A9.09,9.09,0,0,1-89.91-147.4Zm-4.48,2.55a4,4,0,0,0-1.43-1.41,3.9,3.9,0,0,0-5.31,1.4l-35.59,61.27a3.84,3.84,0,0,0-.51,1.9,3.9,3.9,0,0,0,3.87,3.89l71.86.71a3.89,3.89,0,0,0,2-.51,3.82,3.82,0,0,0,1.41-5.26Z"/></clipPath></defs><g id="Layer_1" data-name="Layer 1"><path class="cls-1" d="M-81.75,1186.17h13.39v58.42a6.67,6.67,0,0,0,1.72,4.51,5.47,5.47,0,0,0,4.12,1.84h11.27c3.2,0,5.79-2.84,5.79-12.43V1075.4a4.78,4.78,0,0,0-2.35-3.88,4,4,0,0,0-4.24.21c-21.1,14.48-33.92,39.85-33.92,67.16v42.75a4.84,4.84,0,0,0,1.24,3.27,4,4,0,0,0,3,1.35Zm-76.78-42.25,2-67.49a5.52,5.52,0,0,1,5.27-5.51,5.53,5.53,0,0,1,5.28,5.51l1.39,44.09a4.71,4.71,0,0,0,3.78,4.72,4,4,0,0,0,3.23-1.11,4.88,4.88,0,0,0,1.46-3.34l1.37-44.08a5.83,5.83,0,0,1,4.22-5.7,5.76,5.76,0,0,1,2.11,0,5.83,5.83,0,0,1,4.22,5.7l1.37,44.08a4.85,4.85,0,0,0,1.47,3.34,4,4,0,0,0,3.22,1.11,4.71,4.71,0,0,0,3.78-4.72l1.38-44.09a5.51,5.51,0,0,1,5.27-5.51,5.51,5.51,0,0,1,5.27,5.51l2,67.42a18.49,18.49,0,0,1-7.92,16l-9.72,6.55v78.15a6.09,6.09,0,0,1-5.8,6.35h-11.26a6.09,6.09,0,0,1-5.8-6.35v-78.28l-9.52-6.33A18.47,18.47,0,0,1-158.53,1143.92Z"/><g class="cls-3"><rect class="cls-1" x="-5214.89" y="-5626.17" width="10427.73" height="9352.51"/></g></g><g id="circle"><circle class="cls-5" cx="64" cy="64" r="64"/></g><g id="Layer_2" data-name="Layer 2"><rect class="cls-6" x="25.85" y="41.91" width="76.36" height="32.95" rx="1.87"/><line class="cls-6" x1="61.34" y1="74.93" x2="61.34" y2="91.99"/><line class="cls-6" x1="66.66" y1="74.93" x2="66.66" y2="91.99"/><line class="cls-6" x1="64" y1="42.18" x2="64" y2="74.73"/><line class="cls-6" x1="26.05" y1="58.99" x2="63.81" y2="58.99"/><path class="cls-7" d="M40.41,47.31S47.9,42.25,49,39.23c.62-1.67-.46-3.15-2.42-3.18a4.08,4.08,0,0,0-3.11,1.5A3.66,3.66,0,0,0,41,36.05a2.81,2.81,0,0,0-2.73,1.12s-.91.35-1.08.94a1.36,1.36,0,0,0-1,.81,2.25,2.25,0,0,0-1.25,3C35.47,44,40.41,47.31,40.41,47.31Z"/></g></svg>