<svg xmlns="http://www.w3.org/2000/svg" xmlns:xlink="http://www.w3.org/1999/xlink" viewBox="0 0 128 128"><defs><style>.cls-1{fill:#fff;}.cls-2,.cls-6{fill:none;}.cls-2{clip-rule:evenodd;}.cls-3{clip-path:url(#clip-path);}.cls-4{clip-path:url(#clip-path-2);}.cls-5{fill:#ffeb00;}.cls-6{stroke:#233041;stroke-linecap:round;stroke-linejoin:round;stroke-width:1.5px;}</style><clipPath id="clip-path"><path class="cls-1" d="M-422.34,1186.17h13.4v58.42a6.66,6.66,0,0,0,1.71,4.51,5.51,5.51,0,0,0,4.13,1.84h11.27c3.19,0,5.79-2.84,5.79-12.43V1075.4a4.78,4.78,0,0,0-2.35-3.88,4,4,0,0,0-4.25.21c-21.09,14.48-33.91,39.85-33.92,67.16v42.75a4.89,4.89,0,0,0,1.24,3.27,4,4,0,0,0,3,1.35Zm-76.77-42.25,2-67.49a5.51,5.51,0,0,1,5.27-5.51,5.51,5.51,0,0,1,5.27,5.51l1.39,44.09a4.71,4.71,0,0,0,3.79,4.72,4,4,0,0,0,3.22-1.11,4.8,4.8,0,0,0,1.46-3.34l1.38-44.08a5.83,5.83,0,0,1,4.22-5.7,5.76,5.76,0,0,1,2.11,0,5.84,5.84,0,0,1,4.21,5.7l1.38,44.08a4.8,4.8,0,0,0,1.46,3.34,4,4,0,0,0,3.22,1.11,4.71,4.71,0,0,0,3.79-4.72l1.37-44.09a5.52,5.52,0,0,1,5.27-5.51,5.53,5.53,0,0,1,5.28,5.51l2,67.42a18.54,18.54,0,0,1-7.92,16l-9.73,6.55v78.15a6.09,6.09,0,0,1-5.79,6.35h-11.27a6.09,6.09,0,0,1-5.79-6.35v-78.28l-9.53-6.33A18.49,18.49,0,0,1-499.11,1143.92Z"/></clipPath><clipPath id="clip-path-2"><path class="cls-2" d="M-438.54-88.22a3.18,3.18,0,0,0,3.18-3.18,3.18,3.18,0,0,0-3.18-3.19,3.18,3.18,0,0,0-3.17,3.19A3.17,3.17,0,0,0-438.54-88.22Zm-1-38.23h2.11a2.12,2.12,0,0,1,2.12,2.13v22.82a2.12,2.12,0,0,1-2.12,2.12h-2.11a2.12,2.12,0,0,1-2.12-2.12v-22.82A2.12,2.12,0,0,1-439.59-126.45Zm9.1-21,36.27,62a8.9,8.9,0,0,1-3.29,12.26,9,9,0,0,1-4.6,1.19L-474-72.67a9.08,9.08,0,0,1-9-9.08,8.84,8.84,0,0,1,1.2-4.42l35.58-61.27a9.09,9.09,0,0,1,12.39-3.26A9,9,0,0,1-430.49-147.4Zm-4.49,2.55a3.92,3.92,0,0,0-1.42-1.41,3.89,3.89,0,0,0-5.31,1.4L-477.3-83.59a3.85,3.85,0,0,0-.52,1.9,3.91,3.91,0,0,0,3.88,3.89l71.85.71a3.9,3.9,0,0,0,2-.51,3.82,3.82,0,0,0,1.4-5.26Z"/></clipPath></defs><g id="Layer_1" data-name="Layer 1"><path class="cls-1" d="M-422.34,1186.17h13.4v58.42a6.66,6.66,0,0,0,1.71,4.51,5.51,5.51,0,0,0,4.13,1.84h11.27c3.19,0,5.79-2.84,5.79-12.43V1075.4a4.78,4.78,0,0,0-2.35-3.88,4,4,0,0,0-4.25.21c-21.09,14.48-33.91,39.85-33.92,67.16v42.75a4.89,4.89,0,0,0,1.24,3.27,4,4,0,0,0,3,1.35Zm-76.77-42.25,2-67.49a5.51,5.51,0,0,1,5.27-5.51,5.51,5.51,0,0,1,5.27,5.51l1.39,44.09a4.71,4.71,0,0,0,3.79,4.72,4,4,0,0,0,3.22-1.11,4.8,4.8,0,0,0,1.46-3.34l1.38-44.08a5.83,5.83,0,0,1,4.22-5.7,5.76,5.76,0,0,1,2.11,0,5.84,5.84,0,0,1,4.21,5.7l1.38,44.08a4.8,4.8,0,0,0,1.46,3.34,4,4,0,0,0,3.22,1.11,4.71,4.71,0,0,0,3.79-4.72l1.37-44.09a5.52,5.52,0,0,1,5.27-5.51,5.53,5.53,0,0,1,5.28,5.51l2,67.42a18.54,18.54,0,0,1-7.92,16l-9.73,6.55v78.15a6.09,6.09,0,0,1-5.79,6.35h-11.27a6.09,6.09,0,0,1-5.79-6.35v-78.28l-9.53-6.33A18.49,18.49,0,0,1-499.11,1143.92Z"/><g class="cls-3"><rect class="cls-1" x="-5555.48" y="-5626.17" width="10427.73" height="9352.51"/></g></g><g id="circle"><circle class="cls-5" cx="64" cy="64" r="64"/></g><g id="Layer_2" data-name="Layer 2"><path class="cls-6" d="M59.88,87.89h8.24a1,1,0,0,1,1,1V92.4A3.1,3.1,0,0,1,66,95.5H62a3.1,3.1,0,0,1-3.1-3.1V88.85A1,1,0,0,1,59.88,87.89Z"/><path class="cls-6" d="M64,32.5A20.28,20.28,0,0,0,43.71,52.79s-.56,11.5,16.82,28.7a5,5,0,0,0,7,.1c5.62-5.28,15.86-17.1,16.79-28.76v0A20.29,20.29,0,0,0,64,32.5Zm.09,41.71L64,74.3l-.09-.09C50.73,61.76,51.49,52.6,51.49,52.6a12.51,12.51,0,0,1,25,0v0C76.54,53.08,76.93,62.08,64.09,74.21Z"/></g></svg>