<?xml version="1.0" encoding="utf-8"?>
<!-- Generator: Adobe Illustrator 26.1.0, SVG Export Plug-In . SVG Version: 6.00 Build 0)  -->
<svg version="1.1" xmlns="http://www.w3.org/2000/svg" xmlns:xlink="http://www.w3.org/1999/xlink" x="0px" y="0px"
	 viewBox="0 0 128 128" style="enable-background:new 0 0 128 128;" xml:space="preserve">
<style type="text/css">
	.st0{fill:#FFEB00;}
	.st1{fill:none;stroke:#233041;stroke-width:1.5;stroke-linecap:round;stroke-linejoin:round;stroke-miterlimit:10;}
	.st2{fill:#FFEB00;stroke:#233041;stroke-width:1.5;stroke-linecap:round;stroke-linejoin:round;stroke-miterlimit:10;}
	.st3{fill:#233041;}
	.st4{fill:none;stroke:#233041;stroke-width:1.5;stroke-miterlimit:10;}
	.st5{fill:none;stroke:#FFEB00;stroke-width:1.5901;stroke-miterlimit:10;}
	.st6{fill:none;stroke:#E9EB00;stroke-width:0.521;stroke-miterlimit:10;}
	.st7{fill:none;stroke:#E9EB00;stroke-width:1.5;stroke-miterlimit:10;}
	.st8{fill:none;stroke:#FAD103;stroke-miterlimit:10;}
	.st9{fill:none;stroke:#233041;stroke-width:1.5038;stroke-linecap:round;stroke-linejoin:round;stroke-miterlimit:10;}
	.st10{fill:#FFEB00;stroke:#233041;stroke-width:1.5;stroke-miterlimit:10;}
	.st11{fill:none;stroke:#FFEB00;stroke-width:0.5;stroke-miterlimit:10;}
	.st12{fill:#233041;stroke:#233041;stroke-width:0.5;stroke-linecap:round;stroke-linejoin:round;stroke-miterlimit:10;}
	.st13{fill:none;stroke:#233041;stroke-width:1.4416;stroke-linecap:round;stroke-linejoin:round;stroke-miterlimit:10;}
</style>
<g id="Layer_1">
</g>
<g id="circle">
	<circle class="st0" cx="64" cy="64" r="64"/>
</g>
<g id="Layer_2">
	<g>
		<g>
			<path class="st1" d="M80.83,47.66l-33.56,0c-0.82,0-1.56,0.61-1.59,1.43c-0.04,0.86,0.65,1.57,1.5,1.57h0.15l5.71,45.74
				c0.08,0.61,0.59,1.06,1.2,1.06h19.55c0.61,0,1.12-0.45,1.2-1.06l5.71-45.74h0.05c0.82,0,1.56-0.61,1.59-1.43
				C82.37,48.37,81.68,47.66,80.83,47.66z"/>
			<line class="st1" x1="47.17" y1="50.66" x2="80.68" y2="50.66"/>
		</g>
		<path class="st1" d="M63.79,30.54c0,0-1.51,2.27,0.17,7.04c1.65,4.66-0.17,7.11-0.17,7.11"/>
		<path class="st1" d="M69.85,44.69c0,0,1.1-1.86-0.18-4.68c-1.22-2.7,0.18-4.72,0.18-4.72"/>
		<path class="st1" d="M58.57,44.69c0,0,1.1-1.86-0.18-4.68c-1.22-2.7,0.18-4.72,0.18-4.72"/>
	</g>
	<path class="st12" d="M68.72,59.83c-0.13-0.01-0.26-0.02-0.39-0.02c-0.72,0-1.38,0.2-1.97,0.61c-0.43,0.3-1.02,0.3-1.45,0
		c-0.59-0.41-1.25-0.61-1.97-0.61c-0.13,0-0.26,0.01-0.39,0.02c-0.73,0.07-1.32,0.48-1.63,0.95c-0.4,0.17-0.71,0.44-0.92,0.74
		c-0.41,0.18-0.73,0.46-0.94,0.76c-0.61,0.27-1.04,0.76-1.14,1.22c-0.05,0.22-0.08,0.45-0.08,0.67c0,0.67,0.25,1.33,0.75,2.02
		c0.24,0.33,1.12,1.31,2.15,2.18c0.4,0.34,0.94,0.74,1.33,1.02c0.31,0.22,0.56,0.4,0.67,0.47l0.02,0.01l0.08,0.06l0.08-0.06
		l0.02-0.01c0.11-0.08,0.37-0.25,0.68-0.48c0.38-0.27,0.92-0.67,1.33-1.02c0.06-0.05,0.12-0.1,0.18-0.16c0.26-0.2,0.53-0.4,0.75-0.6
		c0.06-0.05,0.11-0.1,0.17-0.15c0.3-0.23,0.56-0.43,0.77-0.61c0.06-0.05,0.11-0.1,0.17-0.15c0,0,0,0,0,0
		c0.3-0.23,0.56-0.43,0.76-0.6c1.03-0.88,1.9-1.87,2.15-2.18c0.48-0.63,0.75-1.36,0.75-2.05c0-0.22-0.03-0.43-0.08-0.64
		C70.41,60.61,69.68,59.92,68.72,59.83z M63.53,69.26c-0.32,0.23-0.59,0.41-0.69,0.48c-0.1-0.07-0.37-0.25-0.69-0.48
		c-0.42-0.3-0.93-0.68-1.32-1.01c-1.01-0.86-1.89-1.84-2.12-2.16c-0.46-0.62-0.72-1.25-0.72-1.93c0-0.21,0.03-0.42,0.08-0.64
		c0.08-0.36,0.41-0.76,0.87-1.03c-0.04,0.08-0.07,0.16-0.09,0.24c-0.05,0.22-0.08,0.45-0.08,0.67c0,0.67,0.25,1.33,0.75,2.02
		c0.24,0.33,1.13,1.31,2.15,2.18c0.4,0.35,0.94,0.75,1.33,1.02c0.32,0.23,0.59,0.42,0.69,0.49l0.02,0.02
		C63.65,69.18,63.59,69.22,63.53,69.26z M64.46,68.51c-0.32,0.23-0.59,0.41-0.69,0.48c-0.1-0.07-0.37-0.25-0.69-0.48
		c-0.42-0.3-0.93-0.68-1.32-1.01c-1.01-0.86-1.89-1.84-2.12-2.16c-0.46-0.62-0.72-1.25-0.72-1.93c0-0.21,0.02-0.42,0.08-0.64
		c0.08-0.36,0.41-0.76,0.87-1.02c-0.04,0.08-0.07,0.16-0.08,0.24c-0.05,0.23-0.08,0.45-0.08,0.67c0,0.67,0.25,1.33,0.75,2.02
		c0.24,0.33,1.12,1.31,2.15,2.18c0.32,0.27,0.77,0.62,1.33,1.02c0.32,0.23,0.59,0.41,0.69,0.49l0.02,0.02
		C64.58,68.42,64.52,68.47,64.46,68.51z M65.39,67.76c-0.32,0.23-0.59,0.41-0.69,0.48c-0.1-0.07-0.37-0.25-0.69-0.48
		c-0.42-0.3-0.93-0.68-1.32-1.01c-1.01-0.86-1.89-1.84-2.12-2.16c-0.46-0.62-0.72-1.25-0.72-1.93c0-0.21,0.03-0.42,0.08-0.64
		c0.08-0.36,0.4-0.76,0.87-1.02c-0.04,0.08-0.06,0.16-0.08,0.24c-0.05,0.22-0.08,0.45-0.08,0.67c0,0.67,0.25,1.33,0.75,2.02
		c0.24,0.33,1.13,1.31,2.15,2.18c0.32,0.27,0.77,0.62,1.33,1.02c0.31,0.22,0.56,0.4,0.69,0.49l0.02,0.02
		C65.51,67.67,65.45,67.71,65.39,67.76z M69.76,63.83c-0.24,0.32-1.11,1.3-2.12,2.16c-0.38,0.33-0.9,0.71-1.32,1.01
		c-0.32,0.23-0.59,0.41-0.69,0.48c-0.1-0.07-0.37-0.25-0.69-0.48c-0.42-0.3-0.93-0.68-1.32-1.01c-1.01-0.86-1.89-1.84-2.12-2.16
		c-0.46-0.62-0.72-1.25-0.72-1.93c0-0.21,0.03-0.42,0.08-0.64c0.13-0.55,0.8-1.21,1.7-1.29c0.13-0.01,0.25-0.02,0.38-0.02
		c1.27,0,2.11,0.66,2.63,1.24c0.02,0.02,0.04,0.04,0.07,0.04h0c0.03,0,0.05-0.01,0.07-0.04c0.51-0.58,1.36-1.24,2.63-1.24
		c0.12,0,0.25,0.01,0.38,0.02c0.9,0.09,1.58,0.75,1.7,1.29c0.05,0.2,0.07,0.41,0.07,0.61C70.48,62.58,70.19,63.27,69.76,63.83z"/>
</g>
</svg>
