<?xml version="1.0" encoding="utf-8"?>
<!-- Generator: Adobe Illustrator 26.1.0, SVG Export Plug-In . SVG Version: 6.00 Build 0)  -->
<svg version="1.1" xmlns="http://www.w3.org/2000/svg" xmlns:xlink="http://www.w3.org/1999/xlink" x="0px" y="0px"
	 viewBox="0 0 128 128" style="enable-background:new 0 0 128 128;" xml:space="preserve">
<style type="text/css">
	.st0{fill:#FFEB00;}
	.st1{fill:none;stroke:#233041;stroke-width:1.5;stroke-linecap:round;stroke-linejoin:round;stroke-miterlimit:10;}
	.st2{fill:#FFEB00;stroke:#233041;stroke-width:1.5;stroke-linecap:round;stroke-linejoin:round;stroke-miterlimit:10;}
	.st3{fill:#233041;}
	.st4{fill:none;stroke:#233041;stroke-width:1.5;stroke-miterlimit:10;}
	.st5{fill:none;stroke:#FFEB00;stroke-width:1.5901;stroke-miterlimit:10;}
	.st6{fill:none;stroke:#E9EB00;stroke-width:0.521;stroke-miterlimit:10;}
	.st7{fill:none;stroke:#E9EB00;stroke-width:1.5;stroke-miterlimit:10;}
	.st8{fill:none;stroke:#FAD103;stroke-miterlimit:10;}
	.st9{fill:none;stroke:#233041;stroke-width:1.5038;stroke-linecap:round;stroke-linejoin:round;stroke-miterlimit:10;}
	.st10{fill:#FFEB00;stroke:#233041;stroke-width:1.5;stroke-miterlimit:10;}
	.st11{fill:none;stroke:#FFEB00;stroke-width:0.5;stroke-miterlimit:10;}
	.st12{fill:#233041;stroke:#233041;stroke-width:0.5;stroke-linecap:round;stroke-linejoin:round;stroke-miterlimit:10;}
	.st13{fill:none;stroke:#233041;stroke-width:1.4416;stroke-linecap:round;stroke-linejoin:round;stroke-miterlimit:10;}
</style>
<g id="Layer_1">
</g>
<g id="circle">
	<circle class="st0" cx="64" cy="64" r="64"/>
</g>
<g id="Layer_2">
	<g>
		<line class="st1" x1="50.67" y1="52.12" x2="77.31" y2="52.12"/>
		<line class="st1" x1="50.67" y1="64.04" x2="77.31" y2="64.04"/>
		<path class="st3" d="M77.52,46.91L77.52,46.91c-1.65,0-2.98,1.33-2.98,2.98v16.97c0,1.65,1.33,2.98,2.98,2.98l0,0"/>
		<path class="st1" d="M77.47,98.87H50.53c-2.21,0-4-1.79-4-4V33.13c0-2.21,1.79-4,4-4h26.94c2.21,0,4,1.79,4,4v61.75
			C81.47,97.08,79.68,98.87,77.47,98.87z"/>
		<line class="st1" x1="50.67" y1="40.19" x2="77.33" y2="40.19"/>
		<line class="st1" x1="50.67" y1="75.96" x2="77.28" y2="75.96"/>
		<line class="st1" x1="50.69" y1="87.88" x2="77.26" y2="87.88"/>
		<path class="st1" d="M73.63,94.94H54.38c-2.21,0-4-1.79-4-4V37.06c0-2.21,1.79-4,4-4h19.25c2.21,0,4,1.79,4,4v53.88
			C77.63,93.15,75.84,94.94,73.63,94.94z"/>
	</g>
</g>
</svg>
