<svg xmlns="http://www.w3.org/2000/svg" xmlns:xlink="http://www.w3.org/1999/xlink" viewBox="0 0 128 128"><defs><style>.cls-1{fill:#fff;}.cls-2,.cls-6{fill:none;}.cls-2{clip-rule:evenodd;}.cls-3{clip-path:url(#clip-path);}.cls-4{clip-path:url(#clip-path-2);}.cls-5{fill:#ffeb00;}.cls-6{font-size:38px;stroke:#233041;stroke-miterlimit:10;stroke-width:1.5px;font-family:FuturaPT-Bold, Futura PT;font-weight:700;}.cls-7{letter-spacing:0.04em;}</style><clipPath id="clip-path"><path class="cls-1" d="M-590.8,1186.17h13.39v58.42a6.67,6.67,0,0,0,1.72,4.51,5.49,5.49,0,0,0,4.13,1.84h11.26c3.2,0,5.8-2.84,5.8-12.43V1075.4a4.79,4.79,0,0,0-2.36-3.88,4,4,0,0,0-4.24.21c-21.1,14.48-33.91,39.85-33.92,67.16v42.75a4.89,4.89,0,0,0,1.24,3.27,4,4,0,0,0,3,1.35Zm-76.78-42.25,2-67.49a5.53,5.53,0,0,1,5.28-5.51,5.52,5.52,0,0,1,5.27,5.51l1.39,44.09a4.71,4.71,0,0,0,3.78,4.72,4,4,0,0,0,3.23-1.11,4.8,4.8,0,0,0,1.46-3.34l1.37-44.08a5.84,5.84,0,0,1,4.22-5.7,5.76,5.76,0,0,1,2.11,0,5.83,5.83,0,0,1,4.22,5.7l1.37,44.08a4.85,4.85,0,0,0,1.47,3.34,4,4,0,0,0,3.22,1.11,4.7,4.7,0,0,0,3.78-4.72l1.38-44.09a5.51,5.51,0,0,1,5.27-5.51,5.51,5.51,0,0,1,5.27,5.51l2,67.42a18.49,18.49,0,0,1-7.92,16l-9.72,6.55v78.15a6.09,6.09,0,0,1-5.8,6.35h-11.26a6.09,6.09,0,0,1-5.79-6.35v-78.28l-9.53-6.33A18.47,18.47,0,0,1-667.58,1143.92Z"/></clipPath><clipPath id="clip-path-2"><path class="cls-2" d="M-607-88.22a3.18,3.18,0,0,0,3.18-3.18A3.18,3.18,0,0,0-607-94.59a3.19,3.19,0,0,0-3.18,3.19A3.18,3.18,0,0,0-607-88.22Zm-1-38.23h2.11a2.12,2.12,0,0,1,2.12,2.13v22.82a2.12,2.12,0,0,1-2.12,2.12H-608a2.13,2.13,0,0,1-2.13-2.12v-22.82A2.13,2.13,0,0,1-608-126.45Zm9.1-21,36.27,62A8.9,8.9,0,0,1-566-73.15a9,9,0,0,1-4.6,1.19l-71.86-.71a9.1,9.1,0,0,1-9-9.08,8.94,8.94,0,0,1,1.2-4.42l35.59-61.27a9.09,9.09,0,0,1,12.39-3.26A9.19,9.19,0,0,1-598.95-147.4Zm-4.49,2.55a4,4,0,0,0-1.43-1.41,3.9,3.9,0,0,0-5.31,1.4l-35.59,61.27a3.84,3.84,0,0,0-.51,1.9,3.9,3.9,0,0,0,3.87,3.89l71.86.71a3.89,3.89,0,0,0,2-.51,3.82,3.82,0,0,0,1.41-5.26Z"/></clipPath></defs><g id="Layer_1" data-name="Layer 1"><path class="cls-1" d="M-590.8,1186.17h13.39v58.42a6.67,6.67,0,0,0,1.72,4.51,5.49,5.49,0,0,0,4.13,1.84h11.26c3.2,0,5.8-2.84,5.8-12.43V1075.4a4.79,4.79,0,0,0-2.36-3.88,4,4,0,0,0-4.24.21c-21.1,14.48-33.91,39.85-33.92,67.16v42.75a4.89,4.89,0,0,0,1.24,3.27,4,4,0,0,0,3,1.35Zm-76.78-42.25,2-67.49a5.53,5.53,0,0,1,5.28-5.51,5.52,5.52,0,0,1,5.27,5.51l1.39,44.09a4.71,4.71,0,0,0,3.78,4.72,4,4,0,0,0,3.23-1.11,4.8,4.8,0,0,0,1.46-3.34l1.37-44.08a5.84,5.84,0,0,1,4.22-5.7,5.76,5.76,0,0,1,2.11,0,5.83,5.83,0,0,1,4.22,5.7l1.37,44.08a4.85,4.85,0,0,0,1.47,3.34,4,4,0,0,0,3.22,1.11,4.7,4.7,0,0,0,3.78-4.72l1.38-44.09a5.51,5.51,0,0,1,5.27-5.51,5.51,5.51,0,0,1,5.27,5.51l2,67.42a18.49,18.49,0,0,1-7.92,16l-9.72,6.55v78.15a6.09,6.09,0,0,1-5.8,6.35h-11.26a6.09,6.09,0,0,1-5.79-6.35v-78.28l-9.53-6.33A18.47,18.47,0,0,1-667.58,1143.92Z"/><g class="cls-3"><rect class="cls-1" x="-5723.94" y="-5626.17" width="10427.73" height="9352.51"/></g></g><g id="circle"><circle class="cls-5" cx="64" cy="64" r="64"/></g><g id="Layer_2" data-name="Layer 2"><text class="cls-6" transform="translate(36.54 75.9)"><tspan class="cls-7">C</tspan><tspan x="23.9" y="0">O</tspan></text></g></svg>