<?xml version="1.0" encoding="utf-8"?>
<!-- Generator: Adobe Illustrator 26.1.0, SVG Export Plug-In . SVG Version: 6.00 Build 0)  -->
<svg version="1.1" xmlns="http://www.w3.org/2000/svg" xmlns:xlink="http://www.w3.org/1999/xlink" x="0px" y="0px"
	 viewBox="0 0 128 128" style="enable-background:new 0 0 128 128;" xml:space="preserve">
<style type="text/css">
	.st0{fill:#FFEB00;}
	.st1{fill:none;stroke:#233041;stroke-width:1.5;stroke-linecap:round;stroke-linejoin:round;stroke-miterlimit:10;}
	.st2{fill:#FFEB00;stroke:#233041;stroke-width:1.5;stroke-linecap:round;stroke-linejoin:round;stroke-miterlimit:10;}
	.st3{fill:#233041;}
	.st4{fill:none;stroke:#233041;stroke-width:1.5;stroke-miterlimit:10;}
	.st5{fill:none;stroke:#FFEB00;stroke-width:1.5901;stroke-miterlimit:10;}
	.st6{fill:none;stroke:#E9EB00;stroke-width:0.521;stroke-miterlimit:10;}
	.st7{fill:none;stroke:#E9EB00;stroke-width:1.5;stroke-miterlimit:10;}
	.st8{fill:none;stroke:#FAD103;stroke-miterlimit:10;}
	.st9{fill:none;stroke:#233041;stroke-width:1.5038;stroke-linecap:round;stroke-linejoin:round;stroke-miterlimit:10;}
	.st10{fill:#FFEB00;stroke:#233041;stroke-width:1.5;stroke-miterlimit:10;}
	.st11{fill:none;stroke:#FFEB00;stroke-width:0.5;stroke-miterlimit:10;}
	.st12{fill:#233041;stroke:#233041;stroke-width:0.5;stroke-linecap:round;stroke-linejoin:round;stroke-miterlimit:10;}
	.st13{fill:none;stroke:#233041;stroke-width:1.4416;stroke-linecap:round;stroke-linejoin:round;stroke-miterlimit:10;}
</style>
<g id="Layer_1">
</g>
<g id="circle">
	<circle class="st0" cx="64" cy="64" r="64"/>
</g>
<g id="Layer_2">
	<g>
		<path class="st1" d="M86.21,94.5H41.79c-1.2,0-2.17-0.97-2.17-2.17V35.67c0-1.2,0.97-2.17,2.17-2.17h44.41
			c1.2,0,2.17,0.97,2.17,2.17v56.66C88.38,93.53,87.4,94.5,86.21,94.5z"/>
		<path class="st1" d="M80.21,57.65H47.79c-0.84,0-1.51-0.68-1.51-1.51V41.21c0-0.84,0.68-1.51,1.51-1.51h32.42
			c0.84,0,1.51,0.68,1.51,1.51v14.92C81.72,56.97,81.05,57.65,80.21,57.65z"/>
		<g>
			<path class="st3" d="M60.43,75.42h-2.18c-0.33,0-0.6-0.27-0.6-0.6v-2.95c0-0.33,0.27-0.6,0.6-0.6h2.18c0.33,0,0.6,0.27,0.6,0.6
				v2.95C61.03,75.16,60.76,75.42,60.43,75.42z"/>
			<path class="st3" d="M65.09,75.42h-2.18c-0.33,0-0.6-0.27-0.6-0.6v-2.95c0-0.33,0.27-0.6,0.6-0.6h2.18c0.33,0,0.6,0.27,0.6,0.6
				v2.95C65.69,75.16,65.42,75.42,65.09,75.42z"/>
			<path class="st3" d="M69.77,75.42H67.6c-0.33,0-0.6-0.27-0.6-0.6v-2.95c0-0.33,0.27-0.6,0.6-0.6h2.18c0.33,0,0.6,0.27,0.6,0.6
				v2.95C70.37,75.16,70.1,75.42,69.77,75.42z"/>
			<path class="st3" d="M60.43,80.84h-2.18c-0.33,0-0.6-0.27-0.6-0.6v-2.95c0-0.33,0.27-0.6,0.6-0.6h2.18c0.33,0,0.6,0.27,0.6,0.6
				v2.95C61.03,80.57,60.76,80.84,60.43,80.84z"/>
			<path class="st3" d="M65.09,80.84h-2.18c-0.33,0-0.6-0.27-0.6-0.6v-2.95c0-0.33,0.27-0.6,0.6-0.6h2.18c0.33,0,0.6,0.27,0.6,0.6
				v2.95C65.69,80.57,65.42,80.84,65.09,80.84z"/>
			<path class="st3" d="M69.77,80.84H67.6c-0.33,0-0.6-0.27-0.6-0.6v-2.95c0-0.33,0.27-0.6,0.6-0.6h2.18c0.33,0,0.6,0.27,0.6,0.6
				v2.95C70.37,80.57,70.1,80.84,69.77,80.84z"/>
			<path class="st3" d="M60.43,86.27h-2.18c-0.33,0-0.6-0.27-0.6-0.6v-2.95c0-0.33,0.27-0.6,0.6-0.6h2.18c0.33,0,0.6,0.27,0.6,0.6
				v2.95C61.03,86.01,60.76,86.27,60.43,86.27z"/>
			<path class="st3" d="M65.09,86.27h-2.18c-0.33,0-0.6-0.27-0.6-0.6v-2.95c0-0.33,0.27-0.6,0.6-0.6h2.18c0.33,0,0.6,0.27,0.6,0.6
				v2.95C65.69,86.01,65.42,86.27,65.09,86.27z"/>
			<path class="st3" d="M69.83,90.88H58.17c-0.33,0-0.6-0.27-0.6-0.6v-2.15c0-0.33,0.27-0.6,0.6-0.6h11.66c0.33,0,0.6,0.27,0.6,0.6
				v2.15C70.42,90.61,70.16,90.88,69.83,90.88z"/>
			<path class="st3" d="M69.77,86.27H67.6c-0.33,0-0.6-0.27-0.6-0.6v-2.95c0-0.33,0.27-0.6,0.6-0.6h2.18c0.33,0,0.6,0.27,0.6,0.6
				v2.95C70.37,86.01,70.1,86.27,69.77,86.27z"/>
		</g>
		<path class="st1" d="M53.68,94.44V69.38c0-1.07,0.87-1.94,1.94-1.94h16.76c1.07,0,1.94,0.87,1.94,1.94v25.05"/>
	</g>
</g>
</svg>
