<?xml version="1.0" encoding="utf-8"?>
<!-- Generator: Adobe Illustrator 26.1.0, SVG Export Plug-In . SVG Version: 6.00 Build 0)  -->
<svg version="1.1" xmlns="http://www.w3.org/2000/svg" xmlns:xlink="http://www.w3.org/1999/xlink" x="0px" y="0px"
	 viewBox="0 0 128 128" style="enable-background:new 0 0 128 128;" xml:space="preserve">
<style type="text/css">
	.st0{fill:#FFEB00;}
	.st1{fill:none;stroke:#233041;stroke-width:1.5;stroke-linecap:round;stroke-linejoin:round;stroke-miterlimit:10;}
	.st2{fill:#FFEB00;stroke:#233041;stroke-width:1.5;stroke-linecap:round;stroke-linejoin:round;stroke-miterlimit:10;}
	.st3{fill:#233041;}
	.st4{fill:none;stroke:#233041;stroke-width:1.5;stroke-miterlimit:10;}
	.st5{fill:none;stroke:#FFEB00;stroke-width:1.5901;stroke-miterlimit:10;}
	.st6{fill:none;stroke:#E9EB00;stroke-width:0.521;stroke-miterlimit:10;}
	.st7{fill:none;stroke:#E9EB00;stroke-width:1.5;stroke-miterlimit:10;}
	.st8{fill:none;stroke:#FAD103;stroke-miterlimit:10;}
	.st9{fill:none;stroke:#233041;stroke-width:1.5038;stroke-linecap:round;stroke-linejoin:round;stroke-miterlimit:10;}
	.st10{fill:#FFEB00;stroke:#233041;stroke-width:1.5;stroke-miterlimit:10;}
	.st11{fill:none;stroke:#FFEB00;stroke-width:0.5;stroke-miterlimit:10;}
	.st12{fill:#233041;stroke:#233041;stroke-width:0.5;stroke-linecap:round;stroke-linejoin:round;stroke-miterlimit:10;}
	.st13{fill:none;stroke:#233041;stroke-width:1.4416;stroke-linecap:round;stroke-linejoin:round;stroke-miterlimit:10;}
</style>
<g id="Layer_1">
</g>
<g id="circle">
	<circle class="st0" cx="64" cy="64" r="64"/>
</g>
<g id="Layer_2">
	<g>
		<path class="st4" d="M65.7,39.11H62.3v-4.57c0-0.94,0.76-1.7,1.7-1.7l0,0c0.94,0,1.7,0.76,1.7,1.7V39.11z"/>
		<path class="st4" d="M62.3,81.8h3.41v12.33c0,0.94-0.76,1.7-1.7,1.7l0,0c-0.94,0-1.7-0.76-1.7-1.7V81.8z"/>
		<path class="st10" d="M81.61,84.87H46.39c-0.83,0-1.5-0.67-1.5-1.5V37.49c0-0.83,0.67-1.5,1.5-1.5h35.21c0.83,0,1.5,0.67,1.5,1.5
			v45.88C83.11,84.2,82.43,84.87,81.61,84.87z"/>
		<circle class="st3" cx="64" cy="81" r="1.02"/>
		<circle class="st3" cx="64" cy="39.86" r="1.02"/>
	</g>
</g>
</svg>
