<?xml version="1.0" encoding="utf-8"?>
<!-- Generator: Adobe Illustrator 26.1.0, SVG Export Plug-In . SVG Version: 6.00 Build 0)  -->
<svg version="1.1" xmlns="http://www.w3.org/2000/svg" xmlns:xlink="http://www.w3.org/1999/xlink" x="0px" y="0px"
	 viewBox="0 0 128 128" style="enable-background:new 0 0 128 128;" xml:space="preserve">
<style type="text/css">
	.st0{fill:#FFEB00;}
	.st1{fill:none;stroke:#233041;stroke-width:1.5;stroke-linecap:round;stroke-linejoin:round;stroke-miterlimit:10;}
	.st2{fill:#FFEB00;stroke:#233041;stroke-width:1.5;stroke-linecap:round;stroke-linejoin:round;stroke-miterlimit:10;}
	.st3{fill:#233041;}
	.st4{fill:none;stroke:#233041;stroke-width:1.5;stroke-miterlimit:10;}
	.st5{fill:none;stroke:#FFEB00;stroke-width:1.5901;stroke-miterlimit:10;}
	.st6{fill:none;stroke:#E9EB00;stroke-width:0.521;stroke-miterlimit:10;}
	.st7{fill:none;stroke:#E9EB00;stroke-width:1.5;stroke-miterlimit:10;}
	.st8{fill:none;stroke:#FAD103;stroke-miterlimit:10;}
	.st9{fill:none;stroke:#233041;stroke-width:1.5038;stroke-linecap:round;stroke-linejoin:round;stroke-miterlimit:10;}
	.st10{fill:#FFEB00;stroke:#233041;stroke-width:1.5;stroke-miterlimit:10;}
	.st11{fill:none;stroke:#FFEB00;stroke-width:0.5;stroke-miterlimit:10;}
	.st12{fill:#233041;stroke:#233041;stroke-width:0.5;stroke-linecap:round;stroke-linejoin:round;stroke-miterlimit:10;}
	.st13{fill:none;stroke:#233041;stroke-width:1.4416;stroke-linecap:round;stroke-linejoin:round;stroke-miterlimit:10;}
</style>
<g id="Layer_1">
</g>
<g id="circle">
	<circle class="st0" cx="64" cy="64" r="64"/>
</g>
<g id="Layer_2">
	<g>
		<path class="st1" d="M83.17,83.46H50.13c-1.66,0-3-1.34-3-3V33.5c0-1.66,1.34-3,3-3h33.04c1.66,0,3,1.34,3,3v46.96
			C86.17,82.11,84.82,83.46,83.17,83.46z"/>
		<path class="st1" d="M81.29,83.8V87c0,0.86-0.7,1.56-1.56,1.56H43.81c-0.86,0-1.56-0.7-1.56-1.56V37.17c0-0.86,0.7-1.56,1.56-1.56
			h3.09"/>
		<path class="st1" d="M76.07,88.62v3.32c0,0.86-0.7,1.56-1.56,1.56H38.59c-0.86,0-1.56-0.7-1.56-1.56V42.1
			c0-0.86,0.7-1.56,1.56-1.56h3.43"/>
		<g>
			<path class="st2" d="M84.35,41.98L71.81,79.66l0.97,4.86c0.16,0.78,1.1,1.1,1.7,0.57l3.75-3.3l12.54-37.68
				c0.65-1.96-0.25-4.03-2.02-4.62h0C86.97,38.91,85,40.02,84.35,41.98z"/>
			<line class="st1" x1="83.15" y1="45.35" x2="89.5" y2="47.46"/>
			<line class="st1" x1="71.81" y1="79.66" x2="78.22" y2="81.8"/>
		</g>
	</g>
</g>
</svg>
