<?xml version="1.0" encoding="utf-8"?>
<!-- Generator: Adobe Illustrator 26.1.0, SVG Export Plug-In . SVG Version: 6.00 Build 0)  -->
<svg version="1.1" xmlns="http://www.w3.org/2000/svg" xmlns:xlink="http://www.w3.org/1999/xlink" x="0px" y="0px"
	 viewBox="0 0 128 128" style="enable-background:new 0 0 128 128;" xml:space="preserve">
<style type="text/css">
	.st0{fill:#FFEB00;}
	.st1{fill:none;stroke:#233041;stroke-width:1.5;stroke-linecap:round;stroke-linejoin:round;stroke-miterlimit:10;}
	.st2{fill:#FFEB00;stroke:#233041;stroke-width:1.5;stroke-linecap:round;stroke-linejoin:round;stroke-miterlimit:10;}
	.st3{fill:#233041;}
	.st4{fill:none;stroke:#233041;stroke-width:1.5;stroke-miterlimit:10;}
	.st5{fill:none;stroke:#FFEB00;stroke-width:1.5901;stroke-miterlimit:10;}
	.st6{fill:none;stroke:#E9EB00;stroke-width:0.521;stroke-miterlimit:10;}
	.st7{fill:none;stroke:#E9EB00;stroke-width:1.5;stroke-miterlimit:10;}
	.st8{fill:none;stroke:#FAD103;stroke-miterlimit:10;}
	.st9{fill:none;stroke:#233041;stroke-width:1.5038;stroke-linecap:round;stroke-linejoin:round;stroke-miterlimit:10;}
	.st10{fill:#FFEB00;stroke:#233041;stroke-width:1.5;stroke-miterlimit:10;}
	.st11{fill:none;stroke:#FFEB00;stroke-width:0.5;stroke-miterlimit:10;}
	.st12{fill:#233041;stroke:#233041;stroke-width:0.5;stroke-linecap:round;stroke-linejoin:round;stroke-miterlimit:10;}
	.st13{fill:none;stroke:#233041;stroke-width:1.4416;stroke-linecap:round;stroke-linejoin:round;stroke-miterlimit:10;}
</style>
<g id="Layer_1">
</g>
<g id="circle">
	<circle class="st0" cx="64" cy="64" r="64"/>
</g>
<g id="Layer_2">
	<g>
		<path class="st1" d="M80.19,87.68l-0.12,0V43.44c0-5.65-4.58-10.23-10.23-10.23H54.47c-5.65,0-10.23,4.58-10.23,10.23v44.24
			l-0.38,0c-1.95,0-3.65,1.5-3.7,3.45c-0.06,2.01,1.55,3.67,3.56,3.67h36.63c2,0,3.62-1.65,3.56-3.67
			C83.84,89.18,82.14,87.68,80.19,87.68z"/>
		<path class="st4" d="M67.52,49.35H56.97c-1.66,0-3-1.34-3-3v-1.83c0-1.66,1.34-3,3-3h10.55c1.66,0,3,1.34,3,3v1.83
			C70.52,48,69.18,49.35,67.52,49.35z"/>
		<path class="st1" d="M80.29,62.62L80.29,62.62c4.2,0,7.61,3.41,7.61,7.61v8.91c0,2.19,1.78,3.97,3.97,3.97h0
			c2.19,0,3.97-1.78,3.97-3.97V52.46c0-1.84-0.77-3.59-2.13-4.84l-6.47-5.93"/>
	</g>
</g>
</svg>
