<?xml version="1.0" encoding="utf-8"?>
<!-- Generator: Adobe Illustrator 26.1.0, SVG Export Plug-In . SVG Version: 6.00 Build 0)  -->
<svg version="1.1" xmlns="http://www.w3.org/2000/svg" xmlns:xlink="http://www.w3.org/1999/xlink" x="0px" y="0px"
	 viewBox="0 0 128 128" style="enable-background:new 0 0 128 128;" xml:space="preserve">
<style type="text/css">
	.st0{fill:#FFEB00;}
	.st1{fill:none;stroke:#233041;stroke-width:1.5;stroke-linecap:round;stroke-linejoin:round;stroke-miterlimit:10;}
	.st2{fill:#FFEB00;stroke:#233041;stroke-width:1.5;stroke-linecap:round;stroke-linejoin:round;stroke-miterlimit:10;}
	.st3{fill:#233041;}
	.st4{fill:none;stroke:#233041;stroke-width:1.5;stroke-miterlimit:10;}
	.st5{fill:none;stroke:#FFEB00;stroke-width:1.5901;stroke-miterlimit:10;}
	.st6{fill:none;stroke:#E9EB00;stroke-width:0.521;stroke-miterlimit:10;}
	.st7{fill:none;stroke:#E9EB00;stroke-width:1.5;stroke-miterlimit:10;}
	.st8{fill:none;stroke:#FAD103;stroke-miterlimit:10;}
	.st9{fill:none;stroke:#233041;stroke-width:1.5038;stroke-linecap:round;stroke-linejoin:round;stroke-miterlimit:10;}
	.st10{fill:#FFEB00;stroke:#233041;stroke-width:1.5;stroke-miterlimit:10;}
	.st11{fill:none;stroke:#FFEB00;stroke-width:0.5;stroke-miterlimit:10;}
	.st12{fill:#233041;stroke:#233041;stroke-width:0.5;stroke-linecap:round;stroke-linejoin:round;stroke-miterlimit:10;}
	.st13{fill:none;stroke:#233041;stroke-width:1.4416;stroke-linecap:round;stroke-linejoin:round;stroke-miterlimit:10;}
</style>
<g id="Layer_1">
</g>
<g id="circle">
	<circle class="st0" cx="64" cy="64" r="64"/>
</g>
<g id="Layer_2">
	<path class="st1" d="M92.82,44.16H35.44c-0.74,0-1.23-0.76-0.93-1.43l4.08-9.16c0.16-0.37,0.53-0.6,0.93-0.6h49.22
		c0.4,0,0.77,0.24,0.93,0.6l4.08,9.16C94.05,43.4,93.56,44.16,92.82,44.16z"/>
	<circle class="st1" cx="63.96" cy="70.63" r="19.36"/>
	<path class="st1" d="M90.26,94.04H37.74c-2.21,0-4-1.79-4-4V51.32c0-2.21,1.79-4,4-4h52.52c2.21,0,4,1.79,4,4v38.71
		C94.26,92.25,92.47,94.04,90.26,94.04z"/>
	<circle class="st3" cx="43.91" cy="38.89" r="2.41"/>
	<circle class="st3" cx="53.75" cy="38.89" r="2.41"/>
	<circle class="st3" cx="63.66" cy="38.89" r="2.41"/>
	<circle class="st1" cx="63.96" cy="70.63" r="11.19"/>
	<path class="st1" d="M72.94,58.13c3.91,2.8,6.46,7.38,6.46,12.56c0,5.17-2.54,9.75-6.44,12.55"/>
</g>
</svg>
