<?xml version="1.0" encoding="utf-8"?>
<!-- Generator: Adobe Illustrator 26.1.0, SVG Export Plug-In . SVG Version: 6.00 Build 0)  -->
<svg version="1.1" xmlns="http://www.w3.org/2000/svg" xmlns:xlink="http://www.w3.org/1999/xlink" x="0px" y="0px"
	 viewBox="0 0 128 128" style="enable-background:new 0 0 128 128;" xml:space="preserve">
<style type="text/css">
	.st0{fill:#FFEB00;}
	.st1{fill:none;stroke:#233041;stroke-width:1.5;stroke-linecap:round;stroke-linejoin:round;stroke-miterlimit:10;}
	.st2{fill:#FFEB00;stroke:#233041;stroke-width:1.5;stroke-linecap:round;stroke-linejoin:round;stroke-miterlimit:10;}
	.st3{fill:#233041;}
	.st4{fill:none;stroke:#233041;stroke-width:1.5;stroke-miterlimit:10;}
	.st5{fill:none;stroke:#FFEB00;stroke-width:1.5901;stroke-miterlimit:10;}
	.st6{fill:none;stroke:#E9EB00;stroke-width:0.521;stroke-miterlimit:10;}
	.st7{fill:none;stroke:#E9EB00;stroke-width:1.5;stroke-miterlimit:10;}
	.st8{fill:none;stroke:#FAD103;stroke-miterlimit:10;}
	.st9{fill:none;stroke:#233041;stroke-width:1.5038;stroke-linecap:round;stroke-linejoin:round;stroke-miterlimit:10;}
	.st10{fill:#FFEB00;stroke:#233041;stroke-width:1.5;stroke-miterlimit:10;}
	.st11{fill:none;stroke:#FFEB00;stroke-width:0.5;stroke-miterlimit:10;}
	.st12{fill:#233041;stroke:#233041;stroke-width:0.5;stroke-linecap:round;stroke-linejoin:round;stroke-miterlimit:10;}
	.st13{fill:none;stroke:#233041;stroke-width:1.4416;stroke-linecap:round;stroke-linejoin:round;stroke-miterlimit:10;}
</style>
<g id="Layer_1">
</g>
<g id="circle">
	<circle class="st0" cx="64" cy="64" r="64"/>
</g>
<g id="Layer_2">
	<g>
		<path class="st1" d="M36.48,43.22h-1.93c-1.14,0-2.06,0.92-2.06,2.06v37.33c0,1.14,0.92,2.06,2.06,2.06h25.51
			c-0.03,0.14-0.05,0.29-0.05,0.43c0,1.58,1.87,2.86,4.17,2.86c2.31,0,4.17-1.28,4.17-2.86c0-0.15-0.02-0.29-0.05-0.43h25.13
			c1.14,0,2.06-0.92,2.06-2.06V45.28c0-1.14-0.92-2.06-2.06-2.06h-1.46"/>
		<g>
			<path class="st1" d="M63.99,41.83v39.98c-4.47-3.48-10.13-4.17-15.9-2.29c-4.36,1.42-8.72,1.33-10.59,1.2
				c-0.54-0.04-0.95-0.49-0.95-1.03V40.98c0-0.62,0.55-1.11,1.16-1.02c1.85,0.26,5.82,0.48,11.29-1.05
				C56.71,36.76,61.46,38.91,63.99,41.83z"/>
			<path class="st1" d="M64.01,81.82c4.47-3.48,10.13-4.17,15.9-2.29c4.36,1.42,8.72,1.33,10.59,1.2c0.54-0.04,0.95-0.49,0.95-1.03
				V40.98c0-0.62-0.55-1.11-1.16-1.02c-1.85,0.26-5.82,0.48-11.29-1.05c-7.72-2.16-12.47,0-15,2.92"/>
		</g>
	</g>
</g>
</svg>
