<?xml version="1.0" encoding="utf-8"?>
<!-- Generator: Adobe Illustrator 26.1.0, SVG Export Plug-In . SVG Version: 6.00 Build 0)  -->
<svg version="1.1" xmlns="http://www.w3.org/2000/svg" xmlns:xlink="http://www.w3.org/1999/xlink" x="0px" y="0px"
	 viewBox="0 0 128 128" style="enable-background:new 0 0 128 128;" xml:space="preserve">
<style type="text/css">
	.st0{fill:#FFEB00;}
	.st1{fill:none;stroke:#233041;stroke-width:1.5;stroke-linecap:round;stroke-linejoin:round;stroke-miterlimit:10;}
	.st2{fill:#FFEB00;stroke:#233041;stroke-width:1.5;stroke-linecap:round;stroke-linejoin:round;stroke-miterlimit:10;}
	.st3{fill:#233041;}
	.st4{fill:none;stroke:#233041;stroke-width:1.5;stroke-miterlimit:10;}
	.st5{fill:none;stroke:#FFEB00;stroke-width:1.5901;stroke-miterlimit:10;}
	.st6{fill:none;stroke:#E9EB00;stroke-width:0.521;stroke-miterlimit:10;}
	.st7{fill:none;stroke:#E9EB00;stroke-width:1.5;stroke-miterlimit:10;}
	.st8{fill:none;stroke:#FAD103;stroke-miterlimit:10;}
	.st9{fill:none;stroke:#233041;stroke-width:1.5038;stroke-linecap:round;stroke-linejoin:round;stroke-miterlimit:10;}
	.st10{fill:#FFEB00;stroke:#233041;stroke-width:1.5;stroke-miterlimit:10;}
	.st11{fill:none;stroke:#FFEB00;stroke-width:0.5;stroke-miterlimit:10;}
	.st12{fill:#233041;stroke:#233041;stroke-width:0.5;stroke-linecap:round;stroke-linejoin:round;stroke-miterlimit:10;}
	.st13{fill:none;stroke:#233041;stroke-width:1.4416;stroke-linecap:round;stroke-linejoin:round;stroke-miterlimit:10;}
</style>
<g id="Layer_1">
</g>
<g id="circle">
	<circle class="st0" cx="64" cy="64" r="64"/>
</g>
<g id="Layer_2">
	<path class="st1" d="M90.41,46.49l4.08-5.13c0.65-0.82,1-1.83,1-2.87l0.01-4.63c0-0.49-0.62-0.7-0.91-0.31l-1.61,2.07
		c-0.19,0.24-0.55,0.27-0.76,0.05l-2.17-2.17c-0.2-0.2-0.52-0.2-0.72,0l-2.21,2.21c-0.2,0.2-0.52,0.2-0.72,0l-2.21-2.21
		c-0.2-0.2-0.52-0.2-0.72,0l-2.24,2.24c-0.2,0.2-0.52,0.2-0.72,0l-2.22-2.22c-0.2-0.2-0.52-0.2-0.72,0l-2.21,2.21
		c-0.2,0.2-0.52,0.2-0.72,0l-2.21-2.21c-0.2-0.2-0.52-0.2-0.72,0l-2.22,2.22c-0.2,0.2-0.52,0.2-0.72,0l-2.24-2.24
		c-0.2-0.2-0.52-0.2-0.72,0l-2.25,2.25c-0.2,0.2-0.52,0.2-0.72,0l-2.22-2.22c-0.2-0.2-0.52-0.2-0.72,0l-2.16,2.16
		c-0.2,0.2-0.52,0.2-0.72,0l-2.18-2.18c-0.2-0.2-0.52-0.2-0.72,0l-2.19,2.19c-0.22,0.22-0.58,0.2-0.76-0.05l-1.68-2.16
		c-0.3-0.38-0.91-0.17-0.91,0.31l-0.01,4.69c0,1.03,0.34,2.04,0.98,2.85l4.03,5.14c0.63,0.81,0.98,1.8,0.98,2.83l0.1,26.14
		c0,1.05-0.35,2.07-1,2.89l-4.08,5.13c-0.65,0.82-1,1.83-1,2.87l-0.01,4.63c0,0.49,0.62,0.7,0.91,0.31l1.61-2.07
		c0.19-0.24,0.55-0.27,0.76-0.05l2.17,2.17c0.2,0.2,0.52,0.2,0.72,0l2.21-2.21c0.2-0.2,0.52-0.2,0.72,0l2.21,2.21
		c0.2,0.2,0.52,0.2,0.72,0l2.24-2.24c0.2-0.2,0.52-0.2,0.72,0l2.22,2.22c0.2,0.2,0.52,0.2,0.72,0l2.21-2.21c0.2-0.2,0.52-0.2,0.72,0
		l2.21,2.21c0.2,0.2,0.52,0.2,0.72,0l2.22-2.22c0.2-0.2,0.52-0.2,0.72,0l2.24,2.24c0.2,0.2,0.52,0.2,0.72,0l2.25-2.25
		c0.2-0.2,0.52-0.2,0.72,0l2.22,2.22c0.2,0.2,0.52,0.2,0.72,0l2.16-2.16c0.2-0.2,0.52-0.2,0.72,0l2.18,2.18c0.2,0.2,0.52,0.2,0.72,0
		l2.19-2.19c0.22-0.22,0.58-0.2,0.76,0.05l1.68,2.16c0.3,0.38,0.91,0.17,0.91-0.31l0.01-4.69c0-1.03-0.34-2.04-0.98-2.85l-4.03-5.14
		c-0.63-0.81-0.98-1.8-0.98-2.83l-0.1-26.14C89.4,48.33,89.75,47.31,90.41,46.49z"/>
	<path class="st2" d="M76.06,93.37l2.33,0.86c0.86,0.32,1.76,0.48,2.68,0.48h5.04c0.7,0,1.05-0.61,0.55-0.96l-1.35-0.97
		c-0.79-0.57-0.79-1.5,0-2.07l1.25-0.9c0.79-0.57,0.79-1.5,0-2.07l-1.18-0.85c-0.79-0.57-0.79-1.5,0-2.07l1.2-0.87
		c0.79-0.57,0.79-1.5,0-2.07l-1.2-0.87c-0.79-0.57-0.79-1.5,0-2.07l1.26-0.91c0.49-0.36,0.14-0.96-0.55-0.96h-4.97
		c-0.92,0-1.83,0.16-2.69,0.49l-2.3,0.86c-0.86,0.32-1.77,0.49-2.69,0.49h-27.2c-0.92,0-1.83-0.16-2.69-0.49l-2.3-0.86
		c-0.86-0.32-1.77-0.49-2.69-0.49h-4.97c-0.7,0-1.05,0.61-0.55,0.96l1.26,0.91c0.79,0.57,0.79,1.5,0,2.07l-1.2,0.87
		c-0.79,0.57-0.79,1.5,0,2.07l1.2,0.87c0.79,0.57,0.79,1.5,0,2.07l-1.18,0.85c-0.79,0.57-0.79,1.5,0,2.07l1.25,0.9
		c0.79,0.57,0.79,1.5,0,2.07l-1.35,0.97c-0.49,0.36-0.14,0.96,0.55,0.96h5.04c0.91,0,1.82-0.16,2.68-0.48l2.33-0.86
		c0.86-0.32,1.76-0.48,2.68-0.48h27.09C74.3,92.89,75.2,93.05,76.06,93.37z"/>
	<circle class="st2" cx="72.02" cy="62.42" r="10.35"/>
	<path class="st4" d="M68.76,88.24H50.92c-1.2,0-2.17-0.97-2.17-2.17v-0.39c0-1.2,0.97-2.17,2.17-2.17h17.84
		c1.2,0,2.17,0.97,2.17,2.17v0.39C70.92,87.27,69.95,88.24,68.76,88.24z"/>
</g>
</svg>
