<svg xmlns="http://www.w3.org/2000/svg" xmlns:xlink="http://www.w3.org/1999/xlink" viewBox="0 0 128 128"><defs><style>.cls-1{fill:#fff;}.cls-2,.cls-6{fill:none;}.cls-2{clip-rule:evenodd;}.cls-3{clip-path:url(#clip-path);}.cls-4{clip-path:url(#clip-path-2);}.cls-5{fill:#ffeb00;}.cls-6,.cls-7{stroke:#233041;stroke-linecap:round;stroke-linejoin:round;}.cls-6{stroke-width:1.5px;}.cls-7{fill:#233041;stroke-width:0.5px;}</style><clipPath id="clip-path"><path class="cls-1" d="M-933.63,1186.17h13.39v58.42a6.67,6.67,0,0,0,1.72,4.51,5.49,5.49,0,0,0,4.13,1.84h11.26c3.2,0,5.8-2.84,5.8-12.43V1075.4a4.79,4.79,0,0,0-2.36-3.88,4,4,0,0,0-4.24.21c-21.1,14.48-33.91,39.85-33.92,67.16v42.75a4.89,4.89,0,0,0,1.24,3.27,4,4,0,0,0,3,1.35Zm-76.78-42.25,2-67.49a5.53,5.53,0,0,1,5.28-5.51,5.52,5.52,0,0,1,5.27,5.51l1.39,44.09a4.71,4.71,0,0,0,3.78,4.72,4,4,0,0,0,3.23-1.11,4.8,4.8,0,0,0,1.46-3.34l1.37-44.08a5.84,5.84,0,0,1,4.22-5.7,5.76,5.76,0,0,1,2.11,0,5.83,5.83,0,0,1,4.22,5.7l1.37,44.08a4.85,4.85,0,0,0,1.47,3.34,4,4,0,0,0,3.22,1.11,4.71,4.71,0,0,0,3.79-4.72l1.37-44.09a5.51,5.51,0,0,1,5.27-5.51,5.53,5.53,0,0,1,5.28,5.51l2,67.42a18.5,18.5,0,0,1-7.91,16l-9.73,6.55v78.15a6.09,6.09,0,0,1-5.79,6.35H-987.1a6.09,6.09,0,0,1-5.79-6.35v-78.28l-9.53-6.33A18.5,18.5,0,0,1-1010.41,1143.92Z"/></clipPath><clipPath id="clip-path-2"><path class="cls-2" d="M-949.83-88.22a3.18,3.18,0,0,0,3.18-3.18,3.18,3.18,0,0,0-3.18-3.19A3.19,3.19,0,0,0-953-91.4,3.18,3.18,0,0,0-949.83-88.22Zm-1-38.23h2.11a2.12,2.12,0,0,1,2.12,2.13v22.82a2.12,2.12,0,0,1-2.12,2.12h-2.11A2.13,2.13,0,0,1-953-101.5v-22.82A2.13,2.13,0,0,1-950.88-126.45Zm9.1-21,36.27,62a8.9,8.9,0,0,1-3.29,12.26A9,9,0,0,1-913.4-72l-71.86-.71a9.1,9.1,0,0,1-9-9.08,8.94,8.94,0,0,1,1.2-4.42l35.59-61.27a9.09,9.09,0,0,1,12.39-3.26A9,9,0,0,1-941.78-147.4Zm-4.49,2.55a3.87,3.87,0,0,0-1.43-1.41,3.9,3.9,0,0,0-5.31,1.4L-988.6-83.59a3.84,3.84,0,0,0-.51,1.9,3.91,3.91,0,0,0,3.87,3.89l71.86.71a3.89,3.89,0,0,0,2-.51A3.82,3.82,0,0,0-910-82.86Z"/></clipPath></defs><g id="Layer_1" data-name="Layer 1"><path class="cls-1" d="M-933.63,1186.17h13.39v58.42a6.67,6.67,0,0,0,1.72,4.51,5.49,5.49,0,0,0,4.13,1.84h11.26c3.2,0,5.8-2.84,5.8-12.43V1075.4a4.79,4.79,0,0,0-2.36-3.88,4,4,0,0,0-4.24.21c-21.1,14.48-33.91,39.85-33.92,67.16v42.75a4.89,4.89,0,0,0,1.24,3.27,4,4,0,0,0,3,1.35Zm-76.78-42.25,2-67.49a5.53,5.53,0,0,1,5.28-5.51,5.52,5.52,0,0,1,5.27,5.51l1.39,44.09a4.71,4.71,0,0,0,3.78,4.72,4,4,0,0,0,3.23-1.11,4.8,4.8,0,0,0,1.46-3.34l1.37-44.08a5.84,5.84,0,0,1,4.22-5.7,5.76,5.76,0,0,1,2.11,0,5.83,5.83,0,0,1,4.22,5.7l1.37,44.08a4.85,4.85,0,0,0,1.47,3.34,4,4,0,0,0,3.22,1.11,4.71,4.71,0,0,0,3.79-4.72l1.37-44.09a5.51,5.51,0,0,1,5.27-5.51,5.53,5.53,0,0,1,5.28,5.51l2,67.42a18.5,18.5,0,0,1-7.91,16l-9.73,6.55v78.15a6.09,6.09,0,0,1-5.79,6.35H-987.1a6.09,6.09,0,0,1-5.79-6.35v-78.28l-9.53-6.33A18.5,18.5,0,0,1-1010.41,1143.92Z"/><g class="cls-3"><rect class="cls-1" x="-6066.77" y="-5626.17" width="10427.73" height="9352.51"/></g></g><g id="circle"><circle class="cls-5" cx="64" cy="64" r="64"/></g><g id="Layer_2" data-name="Layer 2"><rect class="cls-6" x="32" y="51.74" width="64" height="24.52" rx="1.64"/><line class="cls-6" x1="40.09" y1="69.25" x2="87.91" y2="69.25"/><path class="cls-7" d="M68.49,55.44a2.61,2.61,0,0,0-.39,0,3.39,3.39,0,0,0-2,.61,1.32,1.32,0,0,1-1.45,0,3.38,3.38,0,0,0-2-.61,2.55,2.55,0,0,0-.39,0,2.22,2.22,0,0,0-1.62,1,2.09,2.09,0,0,0-.92.74,2.12,2.12,0,0,0-.94.76,1.91,1.91,0,0,0-1.14,1.22,2.56,2.56,0,0,0-.08.67,3.31,3.31,0,0,0,.75,2A17.1,17.1,0,0,0,60.5,64c.41.34,1,.74,1.33,1l.67.48h0l.09.06.08-.06h0l.67-.48c.38-.27.92-.67,1.33-1l.18-.15.75-.6.17-.15c.3-.22.56-.43.76-.6l.17-.15h0c.3-.23.56-.43.76-.61a17.49,17.49,0,0,0,2.15-2.18,3.42,3.42,0,0,0,.74-2.05,2.79,2.79,0,0,0-.07-.64A2.08,2.08,0,0,0,68.49,55.44ZM63.3,64.87l-.69.49c-.11-.07-.37-.25-.69-.49s-.94-.68-1.32-1a16.24,16.24,0,0,1-2.12-2.16,3.16,3.16,0,0,1-.73-1.92,2.87,2.87,0,0,1,.08-.64,1.76,1.76,0,0,1,.87-1,2.25,2.25,0,0,0-.08.24,2.61,2.61,0,0,0-.08.67,3.31,3.31,0,0,0,.75,2,16.57,16.57,0,0,0,2.14,2.18c.41.35,1,.75,1.33,1l.69.49h0Zm.93-.75-.69.48-.69-.48c-.42-.3-.93-.68-1.32-1A16.88,16.88,0,0,1,59.41,61,3.21,3.21,0,0,1,58.69,59a2.76,2.76,0,0,1,.07-.63,1.8,1.8,0,0,1,.87-1,2.25,2.25,0,0,0-.08.24,3.07,3.07,0,0,0-.08.67,3.31,3.31,0,0,0,.75,2,16.69,16.69,0,0,0,2.15,2.19c.32.27.76.62,1.32,1l.69.48,0,0Zm.93-.75-.69.48-.69-.48c-.42-.3-.93-.69-1.32-1a16.35,16.35,0,0,1-2.12-2.15,3.26,3.26,0,0,1-.72-1.93,2.85,2.85,0,0,1,.07-.64,1.78,1.78,0,0,1,.87-1c0,.08-.06.16-.08.23a3.16,3.16,0,0,0-.08.68,3.37,3.37,0,0,0,.75,2,17.57,17.57,0,0,0,2.15,2.18q.48.42,1.32,1l.7.49h0Zm4.37-3.93a16.93,16.93,0,0,1-2.12,2.16c-.39.33-.9.71-1.32,1l-.69.49-.69-.49c-.42-.3-.93-.68-1.32-1a16.93,16.93,0,0,1-2.12-2.16,3.21,3.21,0,0,1-.72-1.92,2.85,2.85,0,0,1,.07-.64,2,2,0,0,1,1.71-1.3h.37a3.44,3.44,0,0,1,2.63,1.24.09.09,0,0,0,.07,0h0a.09.09,0,0,0,.07,0,3.44,3.44,0,0,1,2.63-1.24h.37a1.94,1.94,0,0,1,1.7,1.3,2.47,2.47,0,0,1,.08.6A3.28,3.28,0,0,1,69.53,59.44Z"/></g></svg>