<svg xmlns="http://www.w3.org/2000/svg" xmlns:xlink="http://www.w3.org/1999/xlink" viewBox="0 0 128 128"><defs><style>.cls-1{fill:#fff;}.cls-2{clip-path:url(#clip-path);}.cls-3{fill:#ffeb00;}.cls-4{fill:none;stroke:#233041;stroke-linecap:round;stroke-linejoin:round;stroke-width:1.5px;}</style><clipPath id="clip-path"><path class="cls-1" d="M-1275,1186.17h13.39v58.42a6.7,6.7,0,0,0,1.71,4.51,5.51,5.51,0,0,0,4.13,1.84h11.27c3.2,0,5.79-2.84,5.79-12.43V1075.4a4.78,4.78,0,0,0-2.35-3.88,4,4,0,0,0-4.24.21c-21.1,14.48-33.92,39.85-33.92,67.16v42.75a4.88,4.88,0,0,0,1.23,3.27,4,4,0,0,0,3,1.35Zm-76.78-42.25,2-67.49a5.51,5.51,0,0,1,5.27-5.51,5.51,5.51,0,0,1,5.27,5.51l1.39,44.09a4.71,4.71,0,0,0,3.79,4.72,4,4,0,0,0,3.22-1.11,4.85,4.85,0,0,0,1.47-3.34l1.37-44.08a5.83,5.83,0,0,1,4.22-5.7,5.76,5.76,0,0,1,2.11,0,5.84,5.84,0,0,1,4.22,5.7l1.37,44.08a4.8,4.8,0,0,0,1.46,3.34,4,4,0,0,0,3.23,1.11,4.71,4.71,0,0,0,3.78-4.72l1.37-44.09a5.53,5.53,0,0,1,5.28-5.51,5.52,5.52,0,0,1,5.27,5.51l2,67.42a18.54,18.54,0,0,1-7.92,16l-9.73,6.55v78.15a6.09,6.09,0,0,1-5.79,6.35h-11.27a6.09,6.09,0,0,1-5.79-6.35v-78.28l-9.53-6.33A18.49,18.49,0,0,1-1351.77,1143.92Z"/></clipPath></defs><g id="Layer_1" data-name="Layer 1"><path class="cls-1" d="M-1275,1186.17h13.39v58.42a6.7,6.7,0,0,0,1.71,4.51,5.51,5.51,0,0,0,4.13,1.84h11.27c3.2,0,5.79-2.84,5.79-12.43V1075.4a4.78,4.78,0,0,0-2.35-3.88,4,4,0,0,0-4.24.21c-21.1,14.48-33.92,39.85-33.92,67.16v42.75a4.88,4.88,0,0,0,1.23,3.27,4,4,0,0,0,3,1.35Zm-76.78-42.25,2-67.49a5.51,5.51,0,0,1,5.27-5.51,5.51,5.51,0,0,1,5.27,5.51l1.39,44.09a4.71,4.71,0,0,0,3.79,4.72,4,4,0,0,0,3.22-1.11,4.85,4.85,0,0,0,1.47-3.34l1.37-44.08a5.83,5.83,0,0,1,4.22-5.7,5.76,5.76,0,0,1,2.11,0,5.84,5.84,0,0,1,4.22,5.7l1.37,44.08a4.8,4.8,0,0,0,1.46,3.34,4,4,0,0,0,3.23,1.11,4.71,4.71,0,0,0,3.78-4.72l1.37-44.09a5.53,5.53,0,0,1,5.28-5.51,5.52,5.52,0,0,1,5.27,5.51l2,67.42a18.54,18.54,0,0,1-7.92,16l-9.73,6.55v78.15a6.09,6.09,0,0,1-5.79,6.35h-11.27a6.09,6.09,0,0,1-5.79-6.35v-78.28l-9.53-6.33A18.49,18.49,0,0,1-1351.77,1143.92Z"/><g class="cls-2"><rect class="cls-1" x="-6408.14" y="-5626.17" width="10427.73" height="9352.51"/></g></g><g id="circle"><circle class="cls-3" cx="64" cy="64" r="64"/></g><g id="Layer_2" data-name="Layer 2"><rect class="cls-4" x="36.23" y="47.13" width="55.54" height="36.73"/><rect class="cls-4" x="32.5" y="40.56" width="63" height="46.88"/><polyline class="cls-4" points="54.27 40.3 54.27 35.47 73.73 35.47 73.73 40.23"/><line class="cls-4" x1="46.55" y1="61.7" x2="81.45" y2="61.7"/><line class="cls-4" x1="49.04" y1="66.3" x2="78.82" y2="66.3"/><path class="cls-4" d="M36.23,77.25s11.51,5.32,28,.73c18.36-5.12,27.36-2,27.36-2"/></g></svg>