<?xml version="1.0" encoding="utf-8"?>
<!-- Generator: Adobe Illustrator 26.1.0, SVG Export Plug-In . SVG Version: 6.00 Build 0)  -->
<svg version="1.1" xmlns="http://www.w3.org/2000/svg" xmlns:xlink="http://www.w3.org/1999/xlink" x="0px" y="0px"
	 viewBox="0 0 128 128" style="enable-background:new 0 0 128 128;" xml:space="preserve">
<style type="text/css">
	.st0{fill:#FFEB00;}
	.st1{fill:none;stroke:#233041;stroke-width:1.5;stroke-linecap:round;stroke-linejoin:round;stroke-miterlimit:10;}
	.st2{fill:#FFEB00;stroke:#233041;stroke-width:1.5;stroke-linecap:round;stroke-linejoin:round;stroke-miterlimit:10;}
	.st3{fill:#233041;}
	.st4{fill:none;stroke:#233041;stroke-width:1.5;stroke-miterlimit:10;}
	.st5{fill:none;stroke:#FFEB00;stroke-width:1.5901;stroke-miterlimit:10;}
	.st6{fill:none;stroke:#E9EB00;stroke-width:0.521;stroke-miterlimit:10;}
	.st7{fill:none;stroke:#E9EB00;stroke-width:1.5;stroke-miterlimit:10;}
	.st8{fill:none;stroke:#FAD103;stroke-miterlimit:10;}
	.st9{fill:none;stroke:#233041;stroke-width:1.5038;stroke-linecap:round;stroke-linejoin:round;stroke-miterlimit:10;}
	.st10{fill:#FFEB00;stroke:#233041;stroke-width:1.5;stroke-miterlimit:10;}
	.st11{fill:none;stroke:#FFEB00;stroke-width:0.5;stroke-miterlimit:10;}
	.st12{fill:#233041;stroke:#233041;stroke-width:0.5;stroke-linecap:round;stroke-linejoin:round;stroke-miterlimit:10;}
	.st13{fill:none;stroke:#233041;stroke-width:1.4416;stroke-linecap:round;stroke-linejoin:round;stroke-miterlimit:10;}
</style>
<g id="Layer_1">
</g>
<g id="circle">
	<circle class="st0" cx="64" cy="64" r="64"/>
</g>
<g id="Layer_2">
	<path class="st1" d="M64.95,32.94c-0.61-0.6-1.6-0.59-2.2,0.03c-48.28,50.25-3.91,61.48,0.7,62.49c0.24,0.05,0.5,0.05,0.74-0.02
		C112.37,82.29,72.35,40.23,64.95,32.94z M68.73,89.03l-0.65,0.33c3.72-2.72,7.18-9.2-3.45-22.79c-0.41-0.53-1.21-0.54-1.62-0.01
		c-2.82,3.54-11.41,15.71-3.24,22.81l-0.59-0.34C41.51,78.09,58.85,54.4,63.03,49.2c0.42-0.53,1.23-0.52,1.63,0.03
		C83.5,74.74,75.08,85.17,68.73,89.03z"/>
</g>
</svg>
