<?xml version="1.0" encoding="utf-8"?>
<!-- Generator: Adobe Illustrator 26.1.0, SVG Export Plug-In . SVG Version: 6.00 Build 0)  -->
<svg version="1.1" xmlns="http://www.w3.org/2000/svg" xmlns:xlink="http://www.w3.org/1999/xlink" x="0px" y="0px"
	 viewBox="0 0 128 128" style="enable-background:new 0 0 128 128;" xml:space="preserve">
<style type="text/css">
	.st0{fill:#FFEB00;}
	.st1{fill:none;stroke:#233041;stroke-width:1.5;stroke-linecap:round;stroke-linejoin:round;stroke-miterlimit:10;}
	.st2{fill:#FFEB00;stroke:#233041;stroke-width:1.5;stroke-linecap:round;stroke-linejoin:round;stroke-miterlimit:10;}
	.st3{fill:#233041;}
	.st4{fill:none;stroke:#233041;stroke-width:1.5;stroke-miterlimit:10;}
	.st5{fill:none;stroke:#FFEB00;stroke-width:1.5901;stroke-miterlimit:10;}
	.st6{fill:none;stroke:#E9EB00;stroke-width:0.521;stroke-miterlimit:10;}
	.st7{fill:none;stroke:#E9EB00;stroke-width:1.5;stroke-miterlimit:10;}
	.st8{fill:none;stroke:#FAD103;stroke-miterlimit:10;}
	.st9{fill:none;stroke:#233041;stroke-width:1.5038;stroke-linecap:round;stroke-linejoin:round;stroke-miterlimit:10;}
	.st10{fill:#FFEB00;stroke:#233041;stroke-width:1.5;stroke-miterlimit:10;}
	.st11{fill:none;stroke:#FFEB00;stroke-width:0.5;stroke-miterlimit:10;}
	.st12{fill:#233041;stroke:#233041;stroke-width:0.5;stroke-linecap:round;stroke-linejoin:round;stroke-miterlimit:10;}
	.st13{fill:none;stroke:#233041;stroke-width:1.4416;stroke-linecap:round;stroke-linejoin:round;stroke-miterlimit:10;}
</style>
<g id="Layer_1">
</g>
<g id="circle">
	<circle class="st0" cx="64" cy="64" r="64"/>
</g>
<g id="Layer_2">
	<g>
		<path class="st1" d="M70.42,71.88h2.82c0.53,0,0.96,0.43,0.96,0.96v19.22c0,0.79,0.64,1.44,1.44,1.44h4.65
			c0.79,0,1.44-0.64,1.44-1.44V71.88h0.02v-35.9c0-1.08-1.14-1.78-2.1-1.28c-3.51,1.83-10.19,7.08-10.19,20.54
			c0,10.21,0,14.16,0.01,15.68C69.46,71.46,69.89,71.88,70.42,71.88z"/>
		<path class="st1" d="M60.93,35.92v15.13c0,0.79-0.64,1.42-1.42,1.42h-0.59c-0.79,0-1.42-0.64-1.42-1.42V35.92
			c0-0.79-0.64-1.42-1.42-1.42h-0.98c-0.79,0-1.42,0.64-1.42,1.42v15.13c0,0.79-0.64,1.42-1.42,1.42h-0.59
			c-0.79,0-1.42-0.64-1.42-1.42V35.92c0-0.79-0.64-1.42-1.42-1.42h-1.11c-0.79,0-1.42,0.64-1.42,1.42v25.14
			c0,3.08,2.5,5.58,5.58,5.58v25.44c0,0.79,0.64,1.42,1.42,1.42h4.61c0.79,0,1.42-0.64,1.42-1.42V66.64h0.28
			c3.08,0,5.58-2.5,5.58-5.58V35.92c0-0.79-0.64-1.42-1.42-1.42h-1.37C61.56,34.5,60.93,35.14,60.93,35.92z"/>
	</g>
</g>
</svg>
