<?xml version="1.0" encoding="utf-8"?>
<!-- Generator: Adobe Illustrator 26.1.0, SVG Export Plug-In . SVG Version: 6.00 Build 0)  -->
<svg version="1.1" xmlns="http://www.w3.org/2000/svg" xmlns:xlink="http://www.w3.org/1999/xlink" x="0px" y="0px"
	 viewBox="0 0 128 128" style="enable-background:new 0 0 128 128;" xml:space="preserve">
<style type="text/css">
	.st0{fill:#FFEB00;}
	.st1{fill:none;stroke:#233041;stroke-width:1.5;stroke-linecap:round;stroke-linejoin:round;stroke-miterlimit:10;}
	.st2{fill:#FFEB00;stroke:#233041;stroke-width:1.5;stroke-linecap:round;stroke-linejoin:round;stroke-miterlimit:10;}
	.st3{fill:#233041;}
	.st4{fill:none;stroke:#233041;stroke-width:1.5;stroke-miterlimit:10;}
	.st5{fill:none;stroke:#FFEB00;stroke-width:1.5901;stroke-miterlimit:10;}
	.st6{fill:none;stroke:#E9EB00;stroke-width:0.521;stroke-miterlimit:10;}
	.st7{fill:none;stroke:#E9EB00;stroke-width:1.5;stroke-miterlimit:10;}
	.st8{fill:none;stroke:#FAD103;stroke-miterlimit:10;}
	.st9{fill:none;stroke:#233041;stroke-width:1.5038;stroke-linecap:round;stroke-linejoin:round;stroke-miterlimit:10;}
	.st10{fill:#FFEB00;stroke:#233041;stroke-width:1.5;stroke-miterlimit:10;}
	.st11{fill:none;stroke:#FFEB00;stroke-width:0.5;stroke-miterlimit:10;}
	.st12{fill:#233041;stroke:#233041;stroke-width:0.5;stroke-linecap:round;stroke-linejoin:round;stroke-miterlimit:10;}
	.st13{fill:none;stroke:#233041;stroke-width:1.4416;stroke-linecap:round;stroke-linejoin:round;stroke-miterlimit:10;}
</style>
<g id="Layer_1">
</g>
<g id="circle">
	<circle class="st0" cx="64" cy="64" r="64"/>
</g>
<g id="Layer_2">
	<g>
		<path class="st1" d="M39.33,81.29L39.33,81.29c-4.74-4.75-4.74-12.44,0.01-17.18l24.73-24.7c4.75-4.74,12.44-4.74,17.18,0.01l0,0
			L39.33,81.29z"/>
		<path class="st1" d="M46.7,88.71L46.7,88.71c4.74,4.75,12.43,4.75,17.18,0.01l24.73-24.7c4.75-4.74,4.75-12.43,0.01-17.18l0,0
			L46.7,88.71z"/>
		<path class="st2" d="M35.52,92.15L35.52,92.15c-3.68-3.69-3.68-9.66,0.01-13.34l43.08-43.04c3.81-3.8,9.98-3.8,13.78,0.01l0,0
			c3.8,3.81,3.8,9.98-0.01,13.78L49.74,92.15C45.81,96.08,39.45,96.07,35.52,92.15z"/>
		<path class="st1" d="M40.34,86.72c0-2.17,1.76-3.93,3.93-3.93l1.68,0c2.17,0,3.93-1.76,3.93-3.93l0-1.79
			c0-2.17,1.76-3.93,3.93-3.93l1.79,0c2.17,0,3.93-1.76,3.93-3.93l0-1.71c0-2.17,1.76-3.93,3.93-3.93l1.75,0
			c2.17,0,3.93-1.76,3.93-3.93l0-1.75c0-2.17,1.76-3.93,3.93-3.93l1.68,0c2.17,0,3.93-1.76,3.93-3.93l0-1.71
			c0-2.17,1.76-3.93,3.93-3.93l1.71,0c2.17,0,3.93-1.76,3.93-3.93"/>
	</g>
</g>
</svg>
