<?xml version="1.0" encoding="utf-8"?>
<!-- Generator: Adobe Illustrator 26.1.0, SVG Export Plug-In . SVG Version: 6.00 Build 0)  -->
<svg version="1.1" xmlns="http://www.w3.org/2000/svg" xmlns:xlink="http://www.w3.org/1999/xlink" x="0px" y="0px"
	 viewBox="0 0 128 128" style="enable-background:new 0 0 128 128;" xml:space="preserve">
<style type="text/css">
	.st0{fill:#FFEB00;}
	.st1{fill:none;stroke:#233041;stroke-width:1.5;stroke-linecap:round;stroke-linejoin:round;stroke-miterlimit:10;}
	.st2{fill:#FFEB00;stroke:#233041;stroke-width:1.5;stroke-linecap:round;stroke-linejoin:round;stroke-miterlimit:10;}
	.st3{fill:#233041;}
	.st4{fill:none;stroke:#233041;stroke-width:1.5;stroke-miterlimit:10;}
	.st5{fill:none;stroke:#FFEB00;stroke-width:1.5901;stroke-miterlimit:10;}
	.st6{fill:none;stroke:#E9EB00;stroke-width:0.521;stroke-miterlimit:10;}
	.st7{fill:none;stroke:#E9EB00;stroke-width:1.5;stroke-miterlimit:10;}
	.st8{fill:none;stroke:#FAD103;stroke-miterlimit:10;}
	.st9{fill:none;stroke:#233041;stroke-width:1.5038;stroke-linecap:round;stroke-linejoin:round;stroke-miterlimit:10;}
	.st10{fill:#FFEB00;stroke:#233041;stroke-width:1.5;stroke-miterlimit:10;}
	.st11{fill:none;stroke:#FFEB00;stroke-width:0.5;stroke-miterlimit:10;}
	.st12{fill:#233041;stroke:#233041;stroke-width:0.5;stroke-linecap:round;stroke-linejoin:round;stroke-miterlimit:10;}
	.st13{fill:none;stroke:#233041;stroke-width:1.4416;stroke-linecap:round;stroke-linejoin:round;stroke-miterlimit:10;}
</style>
<g id="Layer_1">
</g>
<g id="circle">
	<circle class="st0" cx="64" cy="64" r="64"/>
</g>
<g id="Layer_2">
	<g>
		<g>
			<path class="st1" d="M61.24,46.11v20.05v0.2h-1.19H42.47c-1.13,0-2.04,0.91-2.04,2.04v25.06c0,1.13,0.91,2.04,2.04,2.04h43.06
				c1.13,0,2.04-0.91,2.04-2.04V68.4c0-1.13-0.91-2.04-2.04-2.04H68.1"/>
		</g>
		<g>
			<polyline class="st1" points="67.1,46.11 67.1,65.86 67.1,66.36 68.1,66.36 			"/>
		</g>
		<path class="st1" d="M67.1,46.59V45.3c0-0.67,0.55-1.22,1.22-1.22l0,0c0.63,0,1.15,0.52,1.15,1.15V46l0,0.05h11.34
			c1.13,0,2.04-0.91,2.04-2.04v-9.47c0-1.13-0.91-2.04-2.04-2.04H47.18c-1.13,0-2.04,0.91-2.04,2.04v9.47
			c0,1.13,0.91,2.04,2.04,2.04l11.7-0.01l0-0.05v-0.7c0-0.67,0.55-1.22,1.22-1.22l0,0c0.63,0,1.15,0.52,1.15,1.15v1.37"/>
	</g>
</g>
</svg>
