<?xml version="1.0" encoding="utf-8"?>
<!-- Generator: Adobe Illustrator 26.1.0, SVG Export Plug-In . SVG Version: 6.00 Build 0)  -->
<svg version="1.1" xmlns="http://www.w3.org/2000/svg" xmlns:xlink="http://www.w3.org/1999/xlink" x="0px" y="0px"
	 viewBox="0 0 128 128" style="enable-background:new 0 0 128 128;" xml:space="preserve">
<style type="text/css">
	.st0{fill:#FFEB00;}
	.st1{fill:none;stroke:#233041;stroke-width:1.5;stroke-linecap:round;stroke-linejoin:round;stroke-miterlimit:10;}
	.st2{fill:#FFEB00;stroke:#233041;stroke-width:1.5;stroke-linecap:round;stroke-linejoin:round;stroke-miterlimit:10;}
	.st3{fill:#233041;}
	.st4{fill:none;stroke:#233041;stroke-width:1.5;stroke-miterlimit:10;}
	.st5{fill:none;stroke:#FFEB00;stroke-width:1.5901;stroke-miterlimit:10;}
	.st6{fill:none;stroke:#E9EB00;stroke-width:0.521;stroke-miterlimit:10;}
	.st7{fill:none;stroke:#E9EB00;stroke-width:1.5;stroke-miterlimit:10;}
	.st8{fill:none;stroke:#FAD103;stroke-miterlimit:10;}
	.st9{fill:none;stroke:#233041;stroke-width:1.5038;stroke-linecap:round;stroke-linejoin:round;stroke-miterlimit:10;}
	.st10{fill:#FFEB00;stroke:#233041;stroke-width:1.5;stroke-miterlimit:10;}
	.st11{fill:none;stroke:#FFEB00;stroke-width:0.5;stroke-miterlimit:10;}
	.st12{fill:#233041;stroke:#233041;stroke-width:0.5;stroke-linecap:round;stroke-linejoin:round;stroke-miterlimit:10;}
	.st13{fill:none;stroke:#233041;stroke-width:1.4416;stroke-linecap:round;stroke-linejoin:round;stroke-miterlimit:10;}
</style>
<g id="Layer_1">
</g>
<g id="circle">
	<circle class="st0" cx="64" cy="64" r="64"/>
</g>
<g id="Layer_2">
	<g>
		<path class="st4" d="M86.84,73.75c4.86-5.62,3.3-15.21-3.2-23.02c-0.32-0.39-0.33-0.94,0-1.32l9.31-10.76
			c0.37-0.42,0.32-1.07-0.1-1.43l-5.17-4.47c-0.42-0.37-1.07-0.32-1.43,0.1l-9.31,10.76c-0.33,0.38-0.88,0.46-1.31,0.19
			c-8.66-5.32-18.38-5.49-23.24,0.13c-0.91,1.05-1.6,2.26-2.07,3.55c-0.08,0.21-0.01,0.45,0.16,0.6l0.46,0.39
			c0.42,0.37,0.47,1.01,0.1,1.43l-0.57,0.66c-0.37,0.42-0.32,1.07,0.1,1.43l0.76,0.66c0.42,0.37,1.07,0.32,1.43-0.1l0.57-0.66
			c0.37-0.42,1.01-0.47,1.43-0.1l0.76,0.65c0.42,0.37,0.47,1.01,0.1,1.43l-0.57,0.66c-0.37,0.42-0.32,1.07,0.1,1.43l0.76,0.66
			c0.42,0.37,1.07,0.32,1.43-0.1l0.57-0.66c0.37-0.42,1.01-0.47,1.43-0.1l0.76,0.65c0.42,0.37,0.47,1.01,0.1,1.43l-0.57,0.66
			c-0.37,0.42-0.32,1.07,0.1,1.43l0.76,0.66c0.42,0.37,1.07,0.32,1.43-0.1l0.57-0.66c0.37-0.42,1.01-0.47,1.43-0.1l0.76,0.65
			c0.42,0.37,0.47,1.01,0.1,1.43l-0.57,0.66c-0.37,0.42-0.32,1.07,0.1,1.43l0.76,0.66c0.42,0.37,1.07,0.32,1.43-0.1l0.57-0.66
			c0.37-0.42,1.01-0.47,1.43-0.1l0.76,0.65c0.42,0.37,0.47,1.01,0.1,1.43l-0.57,0.66c-0.37,0.42-0.32,1.07,0.1,1.43l0.76,0.66
			c0.42,0.37,1.07,0.32,1.43-0.1l0.57-0.66c0.37-0.42,1.01-0.47,1.43-0.1l0.76,0.65c0.42,0.37,0.47,1.01,0.1,1.43l-0.57,0.66
			c-0.37,0.42-0.32,1.07,0.1,1.43l0.76,0.66c0.42,0.37,1.07,0.32,1.43-0.1l0.57-0.66c0.37-0.42,1.01-0.47,1.43-0.1l0.76,0.65
			c0.42,0.37,0.47,1.01,0.1,1.43L78,74.4c-0.37,0.42-0.32,1.07,0.1,1.43l0.76,0.66c0.42,0.37,1.07,0.32,1.43-0.1l0.57-0.66
			c0.37-0.42,1.01-0.47,1.43-0.1l0.46,0.4c0.33,0.29,0.81,0.32,1.19,0.11C85.03,75.51,86,74.72,86.84,73.75z"/>
		<path class="st3" d="M51.22,58.97c-0.85,0.18-2.99,0.75-3.99,2.07c-1.42,1.87,1.31,4.21,2.9,2.48c0.66-0.72,1.22-2.01,1.42-4.25
			C51.57,59.08,51.4,58.93,51.22,58.97z"/>
		<path class="st3" d="M57.96,64.8c-0.85,0.18-2.99,0.75-3.99,2.07c-1.42,1.87,1.31,4.21,2.9,2.48c0.66-0.72,1.22-2.01,1.42-4.25
			C58.3,64.91,58.14,64.76,57.96,64.8z"/>
		<path class="st3" d="M64.68,70.62c-0.85,0.18-2.99,0.75-3.99,2.07c-1.42,1.87,1.31,4.21,2.9,2.48c0.66-0.72,1.22-2.01,1.42-4.25
			C65.03,70.73,64.86,70.58,64.68,70.62z"/>
		<path class="st3" d="M71.4,76.44c-0.85,0.18-2.99,0.75-3.99,2.07c-1.42,1.87,1.31,4.21,2.9,2.48c0.66-0.72,1.22-2.01,1.42-4.25
			C71.75,76.55,71.58,76.4,71.4,76.44z"/>
		<path class="st3" d="M39.18,72.88c-0.85,0.18-2.99,0.75-3.99,2.07c-1.42,1.87,1.31,4.21,2.9,2.48c0.66-0.72,1.22-2.01,1.42-4.25
			C39.53,72.99,39.36,72.84,39.18,72.88z"/>
		<path class="st3" d="M45.92,78.7c-0.85,0.18-2.99,0.75-3.99,2.07c-1.42,1.87,1.31,4.21,2.9,2.48c0.66-0.72,1.22-2.01,1.42-4.25
			C46.26,78.82,46.1,78.67,45.92,78.7z"/>
		<path class="st3" d="M52.64,84.53c-0.85,0.18-2.99,0.75-3.99,2.07c-1.42,1.87,1.31,4.21,2.9,2.48c0.66-0.72,1.22-2.01,1.42-4.25
			C52.99,84.64,52.82,84.49,52.64,84.53z"/>
		<path class="st3" d="M59.37,90.35c-0.85,0.18-2.99,0.75-3.99,2.07c-1.42,1.87,1.31,4.21,2.9,2.48c0.66-0.72,1.22-2.01,1.42-4.25
			C59.71,90.46,59.55,90.31,59.37,90.35z"/>
		<path class="st3" d="M41.83,63.03c-0.85,0.18-2.99,0.75-3.99,2.07c-1.42,1.87,1.31,4.21,2.9,2.48c0.66-0.72,1.22-2.01,1.42-4.25
			C42.17,63.15,42.01,63,41.83,63.03z"/>
		<path class="st3" d="M48.56,68.86c-0.85,0.18-2.99,0.75-3.99,2.07c-1.42,1.87,1.31,4.21,2.9,2.48c0.66-0.72,1.22-2.01,1.42-4.25
			C48.91,68.98,48.74,68.83,48.56,68.86z"/>
		<path class="st3" d="M55.29,74.69c-0.85,0.18-2.99,0.75-3.99,2.07c-1.42,1.87,1.31,4.21,2.9,2.48c0.66-0.72,1.22-2.01,1.42-4.25
			C55.63,74.8,55.47,74.65,55.29,74.69z"/>
		<path class="st3" d="M62.01,80.5c-0.85,0.18-2.99,0.75-3.99,2.07c-1.42,1.87,1.31,4.21,2.9,2.48c0.66-0.72,1.22-2.01,1.42-4.25
			C62.35,80.62,62.19,80.47,62.01,80.5z"/>
		<path class="st3" d="M68.74,86.33c-0.85,0.18-2.99,0.75-3.99,2.07c-1.42,1.87,1.31,4.21,2.9,2.48c0.66-0.72,1.22-2.01,1.42-4.25
			C69.09,86.45,68.92,86.3,68.74,86.33z"/>
	</g>
</g>
</svg>
