<svg xmlns="http://www.w3.org/2000/svg" xmlns:xlink="http://www.w3.org/1999/xlink" viewBox="0 0 128 128"><defs><style>.cls-1{fill:#fff;}.cls-2,.cls-6,.cls-8{fill:none;}.cls-2{clip-rule:evenodd;}.cls-3{clip-path:url(#clip-path);}.cls-4{clip-path:url(#clip-path-2);}.cls-5{fill:#ffeb00;}.cls-6{stroke:#233041;stroke-linecap:round;stroke-linejoin:round;stroke-width:1.5px;}.cls-7{fill:#233041;}.cls-8{stroke:#ffeb00;stroke-miterlimit:10;stroke-width:0.5px;}</style><clipPath id="clip-path"><path class="cls-1" d="M-253,1185.59h13.39V1244a6.69,6.69,0,0,0,1.72,4.52,5.55,5.55,0,0,0,4.13,1.84h11.26c3.2,0,5.8-2.85,5.8-12.44v-163.1a4.77,4.77,0,0,0-2.36-3.88,4,4,0,0,0-4.24.2c-21.1,14.48-33.91,39.86-33.92,67.16v42.75a4.85,4.85,0,0,0,1.24,3.27,4,4,0,0,0,3,1.36Zm-76.78-42.25,2-67.49a5.53,5.53,0,0,1,5.28-5.52,5.53,5.53,0,0,1,5.27,5.52l1.39,44.08a4.69,4.69,0,0,0,3.78,4.72,4,4,0,0,0,3.23-1.1,4.8,4.8,0,0,0,1.46-3.34l1.37-44.09a5.83,5.83,0,0,1,4.22-5.69,5.76,5.76,0,0,1,2.11,0,5.82,5.82,0,0,1,4.22,5.69l1.37,44.09a4.85,4.85,0,0,0,1.47,3.34,4,4,0,0,0,3.22,1.1,4.68,4.68,0,0,0,3.78-4.72l1.38-44.08a5.52,5.52,0,0,1,5.27-5.52,5.52,5.52,0,0,1,5.27,5.52l2,67.41a18.46,18.46,0,0,1-7.92,16l-9.72,6.56V1244a6.1,6.1,0,0,1-5.8,6.36h-11.26a6.1,6.1,0,0,1-5.79-6.36v-78.27l-9.53-6.34A18.47,18.47,0,0,1-329.75,1143.34Z"/></clipPath><clipPath id="clip-path-2"><path class="cls-2" d="M-269.17-88.8A3.18,3.18,0,0,0-266-92a3.18,3.18,0,0,0-3.18-3.19A3.19,3.19,0,0,0-272.35-92,3.19,3.19,0,0,0-269.17-88.8ZM-270.22-127h2.1a2.12,2.12,0,0,1,2.13,2.12v22.82a2.13,2.13,0,0,1-2.13,2.13h-2.1a2.13,2.13,0,0,1-2.13-2.13v-22.82A2.12,2.12,0,0,1-270.22-127Zm9.1-21,36.27,62a8.92,8.92,0,0,1-3.29,12.27,9.25,9.25,0,0,1-4.6,1.19l-71.86-.71a9.1,9.1,0,0,1-9-9.08,8.88,8.88,0,0,1,1.2-4.42L-276.85-148a9.1,9.1,0,0,1,12.39-3.26A9.27,9.27,0,0,1-261.12-148Zm-4.49,2.56a3.9,3.9,0,0,0-1.43-1.42,3.91,3.91,0,0,0-5.31,1.4l-35.59,61.27a3.84,3.84,0,0,0-.51,1.9,3.89,3.89,0,0,0,3.87,3.89l71.86.71a3.89,3.89,0,0,0,2-.51,3.81,3.81,0,0,0,1.41-5.25Z"/></clipPath></defs><g id="Layer_1" data-name="Layer 1"><path class="cls-1" d="M-253,1185.59h13.39V1244a6.69,6.69,0,0,0,1.72,4.52,5.55,5.55,0,0,0,4.13,1.84h11.26c3.2,0,5.8-2.85,5.8-12.44v-163.1a4.77,4.77,0,0,0-2.36-3.88,4,4,0,0,0-4.24.2c-21.1,14.48-33.91,39.86-33.92,67.16v42.75a4.85,4.85,0,0,0,1.24,3.27,4,4,0,0,0,3,1.36Zm-76.78-42.25,2-67.49a5.53,5.53,0,0,1,5.28-5.52,5.53,5.53,0,0,1,5.27,5.52l1.39,44.08a4.69,4.69,0,0,0,3.78,4.72,4,4,0,0,0,3.23-1.1,4.8,4.8,0,0,0,1.46-3.34l1.37-44.09a5.83,5.83,0,0,1,4.22-5.69,5.76,5.76,0,0,1,2.11,0,5.82,5.82,0,0,1,4.22,5.69l1.37,44.09a4.85,4.85,0,0,0,1.47,3.34,4,4,0,0,0,3.22,1.1,4.68,4.68,0,0,0,3.78-4.72l1.38-44.08a5.52,5.52,0,0,1,5.27-5.52,5.52,5.52,0,0,1,5.27,5.52l2,67.41a18.46,18.46,0,0,1-7.92,16l-9.72,6.56V1244a6.1,6.1,0,0,1-5.8,6.36h-11.26a6.1,6.1,0,0,1-5.79-6.36v-78.27l-9.53-6.34A18.47,18.47,0,0,1-329.75,1143.34Z"/><g class="cls-3"><rect class="cls-1" x="-5386.11" y="-5626.75" width="10427.73" height="9352.51"/></g></g><g id="circle"><circle class="cls-5" cx="64" cy="64" r="64"/></g><g id="Layer_2" data-name="Layer 2"><rect class="cls-6" x="32.5" y="45.95" width="63" height="36.11" rx="2.87"/><line class="cls-6" x1="39.31" y1="52.96" x2="73.56" y2="52.96"/><line class="cls-6" x1="50.71" y1="62.67" x2="66.51" y2="62.67"/><line class="cls-6" x1="50.75" y1="73.08" x2="66.55" y2="73.08"/><line class="cls-6" x1="72.67" y1="62.67" x2="88.89" y2="62.67"/><line class="cls-6" x1="72.7" y1="73.08" x2="88.92" y2="73.08"/><path class="cls-7" d="M41.14,61.63l.62-.47a.59.59,0,0,0,.08-.87l-1.15-1.24a.66.66,0,0,0-.94,0l-.58.54a1.74,1.74,0,0,0-.38,2.09,12.14,12.14,0,0,0,4.49,4.8,1.76,1.76,0,0,0,2.1-.2l.62-.58a.7.7,0,0,0,0-1L44.92,63.5a.63.63,0,0,0-.86,0l-.71.66a.56.56,0,0,1-.74,0A7.32,7.32,0,0,1,41,62.38.58.58,0,0,1,41.14,61.63Z"/><rect class="cls-7" x="38.67" y="70.6" width="8" height="5.39" rx="0.66"/><path class="cls-8" d="M38.68,70.47l3.47,2.46a.92.92,0,0,0,1.05,0l3.59-2.39"/></g></svg>