<svg xmlns="http://www.w3.org/2000/svg" xmlns:xlink="http://www.w3.org/1999/xlink" viewBox="0 0 128 128"><defs><style>.cls-1{fill:#fff;}.cls-2{clip-path:url(#clip-path);}.cls-3{fill:#ffeb00;}.cls-4{fill:none;stroke:#233041;stroke-linecap:round;stroke-linejoin:round;stroke-width:1.44px;}.cls-5{fill:#233041;}</style><clipPath id="clip-path"><path class="cls-1" d="M-1104.17,1186.17h13.4v58.42a6.7,6.7,0,0,0,1.71,4.51,5.51,5.51,0,0,0,4.13,1.84h11.27c3.2,0,5.79-2.84,5.79-12.43V1075.4a4.78,4.78,0,0,0-2.35-3.88,4,4,0,0,0-4.25.21c-21.09,14.48-33.91,39.85-33.91,67.16v42.75a4.88,4.88,0,0,0,1.23,3.27,4,4,0,0,0,3,1.35Zm-76.77-42.25,2-67.49a5.51,5.51,0,0,1,5.27-5.51,5.51,5.51,0,0,1,5.27,5.51l1.39,44.09a4.71,4.71,0,0,0,3.79,4.72,4,4,0,0,0,3.22-1.11,4.8,4.8,0,0,0,1.46-3.34l1.38-44.08a5.83,5.83,0,0,1,4.22-5.7,5.76,5.76,0,0,1,2.11,0,5.82,5.82,0,0,1,4.21,5.7l1.38,44.08a4.8,4.8,0,0,0,1.46,3.34,4,4,0,0,0,3.22,1.11,4.71,4.71,0,0,0,3.79-4.72l1.37-44.09a5.53,5.53,0,0,1,5.28-5.51,5.52,5.52,0,0,1,5.27,5.51l2,67.42a18.54,18.54,0,0,1-7.92,16l-9.73,6.55v78.15a6.09,6.09,0,0,1-5.79,6.35h-11.27a6.09,6.09,0,0,1-5.79-6.35v-78.28L-1173,1160A18.49,18.49,0,0,1-1180.94,1143.92Z"/></clipPath></defs><g id="Layer_1" data-name="Layer 1"><path class="cls-1" d="M-1104.17,1186.17h13.4v58.42a6.7,6.7,0,0,0,1.71,4.51,5.51,5.51,0,0,0,4.13,1.84h11.27c3.2,0,5.79-2.84,5.79-12.43V1075.4a4.78,4.78,0,0,0-2.35-3.88,4,4,0,0,0-4.25.21c-21.09,14.48-33.91,39.85-33.91,67.16v42.75a4.88,4.88,0,0,0,1.23,3.27,4,4,0,0,0,3,1.35Zm-76.77-42.25,2-67.49a5.51,5.51,0,0,1,5.27-5.51,5.51,5.51,0,0,1,5.27,5.51l1.39,44.09a4.71,4.71,0,0,0,3.79,4.72,4,4,0,0,0,3.22-1.11,4.8,4.8,0,0,0,1.46-3.34l1.38-44.08a5.83,5.83,0,0,1,4.22-5.7,5.76,5.76,0,0,1,2.11,0,5.82,5.82,0,0,1,4.21,5.7l1.38,44.08a4.8,4.8,0,0,0,1.46,3.34,4,4,0,0,0,3.22,1.11,4.71,4.71,0,0,0,3.79-4.72l1.37-44.09a5.53,5.53,0,0,1,5.28-5.51,5.52,5.52,0,0,1,5.27,5.51l2,67.42a18.54,18.54,0,0,1-7.92,16l-9.73,6.55v78.15a6.09,6.09,0,0,1-5.79,6.35h-11.27a6.09,6.09,0,0,1-5.79-6.35v-78.28L-1173,1160A18.49,18.49,0,0,1-1180.94,1143.92Z"/><g class="cls-2"><rect class="cls-1" x="-6237.31" y="-5626.17" width="10427.73" height="9352.51"/></g></g><g id="circle"><circle class="cls-3" cx="64" cy="64" r="64"/></g><g id="Layer_2" data-name="Layer 2"><rect class="cls-4" x="34.43" y="35.12" width="59.13" height="57.76" rx="1.57"/><rect class="cls-4" x="42.17" y="67.62" width="6.75" height="15.61" rx="1"/><rect class="cls-4" x="79.17" y="67.62" width="6.75" height="15.61" rx="1"/><path class="cls-4" d="M56.53,92.75V68.59a1,1,0,0,1,1-1h13a1,1,0,0,1,1,1V92.68"/><line class="cls-4" x1="64" y1="67.62" x2="64" y2="92.68"/><path class="cls-5" d="M55,49.81a2.31,2.31,0,0,0-2-1.58,2.75,2.75,0,0,0-.41,0,3.76,3.76,0,0,0-2.71,1.15,3.76,3.76,0,0,0-2.71-1.15,2.88,2.88,0,0,0-.41,0,2.53,2.53,0,0,0-1.76,1A2.4,2.4,0,0,0,44,50a2.31,2.31,0,0,0-1,.76,2.17,2.17,0,0,0-1.22,1.35,3.53,3.53,0,0,0-.08.72,3.58,3.58,0,0,0,.8,2.16,16.56,16.56,0,0,0,2.18,2.22c.41.35,1,.76,1.35,1l.68.48.1.07.13.08.12-.08.09-.06.69-.49c.39-.28.94-.68,1.35-1l.13-.11,0,0c.25-.19.52-.4.76-.6l.1-.1.06,0c.3-.22.56-.43.77-.61l.12-.1,0,0c.3-.22.56-.43.76-.61a18.15,18.15,0,0,0,2.19-2.22,3.69,3.69,0,0,0,.8-2.19A2.67,2.67,0,0,0,55,49.81ZM49.58,50a.28.28,0,0,0,.23.1.3.3,0,0,0,.25-.12,3.22,3.22,0,0,1,2.46-1.16l.35,0a1.75,1.75,0,0,1,1.52,1.13,2.15,2.15,0,0,1,.07.56,3.06,3.06,0,0,1-.67,1.83,17.55,17.55,0,0,1-2.11,2.14c-.31.27-.75.6-1.3,1l-.57.4-.56-.4c-.56-.4-1-.73-1.31-1a17.46,17.46,0,0,1-2.1-2.13,3,3,0,0,1-.68-1.81,2.44,2.44,0,0,1,.07-.59,1.76,1.76,0,0,1,1.52-1.13l.35,0A3.22,3.22,0,0,1,49.58,50ZM43.5,54.2a17.36,17.36,0,0,0,2.19,2.23c.41.35,1,.75,1.35,1l.46.33-.49.35-.57-.4c-.38-.27-.91-.66-1.3-1A16.71,16.71,0,0,1,43,54.61a3,3,0,0,1-.69-1.81,2.46,2.46,0,0,1,.08-.59,1.24,1.24,0,0,1,.29-.52c0,.12,0,.24,0,.36A3.55,3.55,0,0,0,43.5,54.2Zm.47-.35a3,3,0,0,1-.68-1.8,2.38,2.38,0,0,1,.07-.59,1.16,1.16,0,0,1,.3-.52,2.06,2.06,0,0,0,0,.35,3.6,3.6,0,0,0,.79,2.15,18.9,18.9,0,0,0,2.19,2.23c.33.28.79.63,1.35,1l.47.33-.5.35-.56-.4c-.38-.28-.92-.67-1.31-1A16.75,16.75,0,0,1,44,53.85Zm.94-.76a3,3,0,0,1-.69-1.8,2.46,2.46,0,0,1,.08-.59,1.24,1.24,0,0,1,.29-.52c0,.12,0,.24,0,.35a3.58,3.58,0,0,0,.8,2.16,16.83,16.83,0,0,0,2.19,2.22c.33.29.78.63,1.34,1l.47.33-.49.35-.57-.4c-.54-.39-1-.74-1.31-1A17,17,0,0,1,44.91,53.09Zm2.19-4.52Zm5.86-.1-.06,0h0Z"/><path class="cls-5" d="M65,51.82c-2.28,0-3.41,1.37-3.41,3.17a4,4,0,0,0,.13,1l-1.42,0h-.55V51.33c0-.49.65-.52.67-.84V50c-.08-.44-.43-.5-.72-.49H57.38a.62.62,0,0,0-.73.49v.45c0,.32.66.35.68.84v.31h0V56.3c0,.21-.84.43-.86.77v.46a.34.34,0,0,0,.09.28.41.41,0,0,0,.32.09H61c.32,0,.52.58,1.15.58h.14c.51,0,.52-.66.54-.71a.45.45,0,0,0,0-.18,3.83,3.83,0,0,0,2.15.58c2.28,0,3.41-1.37,3.41-3.17S67.24,51.82,65,51.82Zm.19,4.84c-.84,0-1.47-1-1.47-2.16,0-.9.45-1.18,1.09-1.18.85,0,1.47,1,1.47,2.15C66.24,56.37,65.8,56.65,65.15,56.66ZM84.6,54.34c-.82-.27-1.62-.39-1.6-.8,0-.18.12-.34.41-.34a1.49,1.49,0,0,1,.93.2c.19.19.28.62.71.62h.39c.25,0,.27-.13.36-.59l.13-.7c0-.54-.88-.91-2.3-.91s-2.61.61-2.61,2c0,1,.82,1.46,1.63,1.74s1.62.41,1.6.79a.53.53,0,0,1-.57.47h-.14a1.92,1.92,0,0,1-1.71-.91.66.66,0,0,0-.32-.07h-.08c-.25,0-.36.17-.49.77a4.08,4.08,0,0,0-.11.63h0c0,.7,1.7,1,2.7,1,1.61,0,2.7-.67,2.7-2.11C86.23,55.05,85.41,54.61,84.6,54.34Zm-5,1.21v0a1.38,1.38,0,0,0,1.11-1.51v-.13a2.63,2.63,0,0,0-2.8-2.22h0A3.06,3.06,0,0,0,74.56,55c0,1.8,1.14,3.17,3.42,3.17,1.36,0,2.68-.75,2.7-1.21,0-.25-.36-.94-.71-1s-.83.55-1.84.55a1.6,1.6,0,0,1-1.42-1h2.92ZM79,53.85c-.06.17-.52.29-1.08.29H76.6A1.65,1.65,0,0,1,78.09,53h0a1.14,1.14,0,0,1,.47.1.71.71,0,0,1,.52.58A.38.38,0,0,1,79,53.85Zm1.13-3.15c.13.13.31.27.45.39a2,2,0,0,0,.24.18,2.22,2.22,0,0,0,.23-.18,5.73,5.73,0,0,0,.45-.39,6.15,6.15,0,0,0,.73-.82,1.35,1.35,0,0,0,.25-.75.85.85,0,0,0,0-.23.69.69,0,0,0-.58-.5h-.13a1.16,1.16,0,0,0-.9.47,0,0,0,0,1,0,0h0a1.12,1.12,0,0,0-.89-.47h-.13a.69.69,0,0,0-.58.5,1,1,0,0,0,0,.24,1.32,1.32,0,0,0,.25.74A6.64,6.64,0,0,0,80.17,50.7Zm-5.58,2.53c.31,0,.48-.21.48-.44v-.4c0-.25-.21-.44-.61-.44H72.34c-.4,0-.6.19-.61.44v.45c0,.23.19.42.54.44h0c.2,0,.21.15.22.29a1.87,1.87,0,0,1-.13.42l-.9,2.1L70.57,54a1.87,1.87,0,0,1-.13-.42c0-.14,0-.26.22-.29h0c.35,0,.54-.21.54-.44v-.45c0-.25-.21-.44-.61-.44H68.47c-.4,0-.6.19-.61.44v.4c0,.23.17.4.48.44h0c.11,0,.18.08.28.3l1.67,4.19a.44.44,0,0,0,.45.31H72.2a.44.44,0,0,0,.44-.31l1.67-4.19c.1-.22.17-.28.28-.3Z"/><line class="cls-4" x1="67.03" y1="78" x2="67.03" y2="83.03"/><line class="cls-4" x1="61.08" y1="78" x2="61.08" y2="83.03"/><line class="cls-4" x1="34.89" y1="40.26" x2="93.11" y2="40.26"/></g></svg>