<?xml version="1.0" encoding="utf-8"?>
<!-- Generator: Adobe Illustrator 26.1.0, SVG Export Plug-In . SVG Version: 6.00 Build 0)  -->
<svg version="1.1" xmlns="http://www.w3.org/2000/svg" xmlns:xlink="http://www.w3.org/1999/xlink" x="0px" y="0px"
	 viewBox="0 0 128 128" style="enable-background:new 0 0 128 128;" xml:space="preserve">
<style type="text/css">
	.st0{fill:#FFEB00;}
	.st1{fill:none;stroke:#233041;stroke-width:1.5;stroke-linecap:round;stroke-linejoin:round;stroke-miterlimit:10;}
	.st2{fill:#FFEB00;stroke:#233041;stroke-width:1.5;stroke-linecap:round;stroke-linejoin:round;stroke-miterlimit:10;}
	.st3{fill:#233041;}
	.st4{fill:none;stroke:#233041;stroke-width:1.5;stroke-miterlimit:10;}
	.st5{fill:none;stroke:#FFEB00;stroke-width:1.5901;stroke-miterlimit:10;}
	.st6{fill:none;stroke:#E9EB00;stroke-width:0.521;stroke-miterlimit:10;}
	.st7{fill:none;stroke:#E9EB00;stroke-width:1.5;stroke-miterlimit:10;}
	.st8{fill:none;stroke:#FAD103;stroke-miterlimit:10;}
	.st9{fill:none;stroke:#233041;stroke-width:1.5038;stroke-linecap:round;stroke-linejoin:round;stroke-miterlimit:10;}
	.st10{fill:#FFEB00;stroke:#233041;stroke-width:1.5;stroke-miterlimit:10;}
	.st11{fill:none;stroke:#FFEB00;stroke-width:0.5;stroke-miterlimit:10;}
	.st12{fill:#233041;stroke:#233041;stroke-width:0.5;stroke-linecap:round;stroke-linejoin:round;stroke-miterlimit:10;}
	.st13{fill:none;stroke:#233041;stroke-width:1.4416;stroke-linecap:round;stroke-linejoin:round;stroke-miterlimit:10;}
</style>
<g id="Layer_1">
</g>
<g id="circle">
	<circle class="st0" cx="64" cy="64" r="64"/>
</g>
<g id="Layer_2">
	<g>
		<path class="st1" d="M31.61,64.09l0.11,0c0.29-0.01,0.54,0.22,0.55,0.52l0.03,0.84c0.01,0.29-0.22,0.54-0.52,0.55l-0.11,0
			c-0.3,0.01-0.54,0.27-0.52,0.57c0.11,1.46,0.32,2.9,0.62,4.3c0.06,0.3,0.36,0.48,0.66,0.4l0.13-0.03c0.28-0.07,0.57,0.1,0.65,0.38
			l0.21,0.82c0.07,0.28-0.1,0.57-0.38,0.65l-0.11,0.03c-0.3,0.08-0.47,0.38-0.38,0.68c0.43,1.39,0.96,2.75,1.56,4.06
			c0.13,0.28,0.47,0.39,0.74,0.24l0.09-0.05c0.26-0.14,0.58-0.04,0.72,0.22l0.4,0.75c0.14,0.26,0.04,0.58-0.22,0.72l-0.11,0.06
			c-0.27,0.14-0.37,0.48-0.21,0.74c0.73,1.26,1.54,2.46,2.43,3.61c0.19,0.24,0.54,0.27,0.77,0.08l0.09-0.08
			c0.22-0.19,0.56-0.16,0.75,0.06l0.55,0.64c0.19,0.22,0.16,0.56-0.06,0.75l-0.09,0.08c-0.23,0.2-0.26,0.55-0.05,0.77
			c0.99,1.06,2.04,2.06,3.16,2.98c0.23,0.19,0.58,0.15,0.77-0.09l0.08-0.1c0.18-0.23,0.51-0.28,0.75-0.11l0.67,0.51
			c0.23,0.18,0.28,0.51,0.11,0.75l-0.08,0.1c-0.18,0.24-0.13,0.59,0.12,0.76c1.2,0.82,2.45,1.56,3.76,2.21
			c0.27,0.14,0.61,0.01,0.73-0.27l0.05-0.11c0.12-0.27,0.43-0.39,0.7-0.28l0.77,0.34c0.27,0.12,0.39,0.43,0.28,0.7l-0.06,0.14
			c-0.12,0.28,0.01,0.6,0.29,0.71c1.34,0.53,2.73,0.97,4.15,1.32c0.3,0.07,0.59-0.12,0.65-0.42l0.03-0.16
			c0.06-0.29,0.34-0.48,0.62-0.42l0.83,0.16c0.29,0.06,0.48,0.34,0.42,0.62l-0.03,0.16c-0.06,0.3,0.14,0.59,0.44,0.63
			c1.42,0.21,2.87,0.34,4.34,0.36c0.3,0.01,0.55-0.25,0.54-0.56l-0.01-0.16c-0.01-0.29,0.22-0.54,0.51-0.55l0.84-0.03
			c0.29-0.01,0.54,0.22,0.55,0.51l0.01,0.18c0.01,0.3,0.27,0.54,0.57,0.52c1.47-0.11,2.91-0.31,4.32-0.61
			c0.3-0.06,0.48-0.36,0.4-0.66l-0.05-0.19c-0.07-0.28,0.1-0.57,0.38-0.65l0.82-0.21c0.28-0.07,0.57,0.1,0.65,0.38l0.05,0.19
			c0.08,0.29,0.38,0.47,0.67,0.38c1.4-0.43,2.76-0.95,4.07-1.56c0.28-0.13,0.39-0.47,0.25-0.73l-0.1-0.18
			c-0.14-0.26-0.04-0.58,0.22-0.72l0.75-0.39c0.26-0.14,0.58-0.04,0.72,0.22l0.1,0.2c0.14,0.27,0.48,0.37,0.74,0.22
			c1.27-0.73,2.48-1.55,3.64-2.44c0.24-0.19,0.27-0.54,0.08-0.77l-0.15-0.18c-0.19-0.22-0.16-0.56,0.06-0.75l0.64-0.54
			c0.22-0.19,0.56-0.16,0.75,0.06l0.15,0.18c0.2,0.23,0.55,0.26,0.77,0.05c1.07-0.99,2.07-2.05,2.99-3.17
			c0.19-0.23,0.15-0.58-0.09-0.77l-0.2-0.15c-0.23-0.18-0.28-0.51-0.1-0.75l0.51-0.67c0.18-0.23,0.51-0.28,0.75-0.1l0.2,0.15
			c0.24,0.18,0.59,0.13,0.76-0.12c0.83-1.21,1.58-2.48,2.24-3.8c0.14-0.27,0.01-0.6-0.26-0.73l-0.23-0.1
			c-0.27-0.12-0.39-0.43-0.27-0.7l0.34-0.77c0.12-0.27,0.43-0.39,0.7-0.27l0.24,0.11c0.28,0.12,0.6-0.01,0.71-0.29
			c0.53-1.35,0.97-2.74,1.32-4.17c0.07-0.29-0.12-0.59-0.41-0.65l-0.28-0.06c-0.29-0.06-0.47-0.34-0.42-0.63l0.17-0.83
			c0.06-0.29,0.34-0.47,0.63-0.42l0.26,0.05c0.3,0.06,0.59-0.14,0.64-0.44c0.22-1.45,0.34-2.93,0.36-4.43
			c-0.22-0.21-0.33-0.33-0.55-0.54l-0.29,0.01c-0.29,0.01-0.54-0.22-0.55-0.52l-0.02-0.84c-0.01-0.29,0.22-0.54,0.52-0.55l0.28-0.01
			c0.3-0.01,0.54-0.27,0.52-0.57c-0.11-1.48-0.32-2.92-0.62-4.34c-0.06-0.3-0.37-0.48-0.66-0.4l-0.28,0.07
			c-0.28,0.07-0.58-0.1-0.65-0.38l-0.21-0.82c-0.07-0.28,0.1-0.58,0.38-0.65l0.28-0.07c0.29-0.08,0.47-0.39,0.38-0.68
			c-0.44-1.4-0.97-2.77-1.58-4.09c-0.13-0.28-0.47-0.39-0.73-0.24l-0.25,0.13c-0.26,0.14-0.58,0.04-0.72-0.22l-0.39-0.75
			c-0.14-0.26-0.04-0.58,0.22-0.72l0.26-0.14c0.27-0.14,0.37-0.48,0.22-0.74c-0.74-1.27-1.56-2.48-2.46-3.63
			c-0.19-0.24-0.54-0.27-0.77-0.08l-0.22,0.19c-0.22,0.19-0.56,0.16-0.75-0.06l-0.54-0.64c-0.19-0.22-0.16-0.56,0.06-0.75L88,42.26
			c0.23-0.2,0.26-0.55,0.05-0.77c-1-1.07-2.07-2.07-3.2-2.99c-0.23-0.19-0.58-0.15-0.77,0.1l-0.17,0.23
			c-0.18,0.24-0.51,0.28-0.74,0.11l-0.68-0.51c-0.24-0.18-0.28-0.51-0.11-0.74l0.17-0.22c0.18-0.24,0.13-0.59-0.13-0.76
			c-1.21-0.82-2.47-1.56-3.79-2.21c-0.27-0.14-0.6-0.01-0.73,0.27l-0.1,0.24c-0.12,0.27-0.43,0.39-0.7,0.27l-0.77-0.34
			c-0.27-0.12-0.39-0.43-0.27-0.7l0.11-0.24c0.12-0.28-0.01-0.61-0.29-0.71c-1.35-0.52-2.75-0.96-4.18-1.3
			c-0.29-0.07-0.59,0.12-0.65,0.42L71,32.63c-0.06,0.29-0.34,0.47-0.63,0.42l-0.83-0.17c-0.29-0.06-0.47-0.34-0.42-0.63l0.05-0.22
			c0.06-0.3-0.14-0.59-0.44-0.64c-1.42-0.2-2.87-0.32-4.34-0.34c-0.21,0.22-0.33,0.33-0.54,0.55l0.01,0.25
			c0.01,0.29-0.23,0.54-0.52,0.54l-0.84,0.02c-0.29,0.01-0.54-0.23-0.54-0.52l-0.01-0.22c-0.01-0.31-0.27-0.55-0.58-0.52
			c-1.47,0.12-2.91,0.33-4.32,0.63c-0.3,0.06-0.48,0.37-0.4,0.66l0.06,0.21c0.07,0.28-0.1,0.58-0.38,0.65l-0.82,0.21
			c-0.28,0.07-0.58-0.1-0.65-0.38l-0.05-0.2c-0.08-0.29-0.39-0.47-0.68-0.38c-1.4,0.44-2.76,0.97-4.07,1.58
			c-0.27,0.13-0.38,0.46-0.24,0.73l0.09,0.17c0.13,0.26,0.03,0.58-0.23,0.72l-0.75,0.39c-0.26,0.13-0.58,0.03-0.72-0.23l-0.08-0.15
			c-0.14-0.27-0.48-0.37-0.74-0.22c-1.26,0.74-2.47,1.56-3.62,2.46c-0.24,0.19-0.27,0.54-0.08,0.77l0.11,0.13
			c0.19,0.22,0.16,0.56-0.06,0.75l-0.64,0.55c-0.22,0.19-0.56,0.16-0.75-0.06l-0.1-0.12c-0.2-0.23-0.55-0.26-0.77-0.05
			c-1.06,0.99-2.05,2.05-2.97,3.17c-0.19,0.23-0.15,0.59,0.1,0.77L38.72,44c0.24,0.18,0.28,0.51,0.11,0.74l-0.5,0.68
			c-0.18,0.24-0.51,0.28-0.74,0.11l-0.12-0.09c-0.24-0.18-0.59-0.13-0.76,0.13c-0.81,1.2-1.55,2.46-2.2,3.77
			c-0.14,0.27-0.01,0.6,0.27,0.73l0.13,0.06c0.27,0.12,0.39,0.43,0.27,0.7l-0.34,0.77c-0.12,0.27-0.43,0.39-0.7,0.27l-0.13-0.06
			c-0.28-0.12-0.61,0.01-0.72,0.29c-0.52,1.35-0.96,2.73-1.3,4.16c-0.07,0.3,0.12,0.59,0.42,0.65l0.13,0.02
			c0.29,0.06,0.48,0.33,0.42,0.62l-0.16,0.83c-0.06,0.29-0.33,0.48-0.62,0.42l-0.12-0.02c-0.3-0.06-0.59,0.15-0.63,0.45
			c-0.11,0.88-0.31,2.65-0.35,4.31C31.05,63.85,31.3,64.1,31.61,64.09z"/>
		<circle class="st1" cx="63.86" cy="64.01" r="20.43"/>
		<circle class="st1" cx="63.91" cy="64.07" r="16.36"/>
		<circle class="st1" cx="63.91" cy="64.12" r="7.58"/>
		<circle class="st3" cx="54.3" cy="56.52" r="1.26"/>
		<circle class="st3" cx="60.45" cy="52.33" r="1.26"/>
		<circle class="st3" cx="67.93" cy="52.5" r="1.26"/>
		<circle class="st3" cx="73.92" cy="57.04" r="1.26"/>
		<circle class="st3" cx="76.11" cy="64.02" r="1.26"/>
		<circle class="st3" cx="73.54" cy="71.52" r="1.26"/>
		<circle class="st3" cx="67.38" cy="75.71" r="1.26"/>
		<circle class="st3" cx="59.9" cy="75.54" r="1.26"/>
		<circle class="st3" cx="53.91" cy="71" r="1.26"/>
		<circle class="st3" cx="51.73" cy="64.03" r="1.26"/>
	</g>
</g>
</svg>
